# Blender 3.6.0
# www.blender.org
mtllib barrel.mtl
o Cylinder
v 0.000000 0.029838 -0.177412
v 0.088706 0.029838 -0.153643
v 0.088706 0.613950 -0.153643
v 0.153643 0.029838 -0.088706
v 0.153643 0.613950 -0.088706
v 0.177412 0.613950 0.000000
v 0.153643 0.029838 0.088706
v 0.153643 0.613950 0.088706
v 0.088706 0.029838 0.153643
v 0.088706 0.613950 0.153643
v 0.000000 0.029838 0.177412
v 0.000000 0.613950 0.177412
v -0.088706 0.029838 0.153643
v -0.088706 0.613950 0.153643
v -0.153643 0.029838 0.088706
v -0.153643 0.613950 0.088706
v -0.153643 0.029838 -0.088706
v -0.153643 0.613950 -0.088706
v -0.088706 0.029838 -0.153643
v -0.088706 0.613950 -0.153643
v -0.138365 0.177871 -0.239655
v -0.142044 0.229272 -0.246028
v -0.000000 0.177871 -0.276730
v -0.000000 0.229272 -0.284088
v -0.138365 0.465917 -0.239655
v -0.142044 0.414516 -0.246028
v -0.000000 0.465917 -0.276730
v -0.000000 0.414516 -0.284088
v -0.239655 0.177871 -0.138365
v -0.246028 0.229272 -0.142044
v -0.239655 0.465917 -0.138365
v -0.246028 0.414516 -0.142044
v -0.276730 0.177871 0.000000
v -0.284088 0.229272 0.000000
v -0.276730 0.465917 0.000000
v -0.284088 0.414516 0.000000
v -0.239655 0.177871 0.138365
v -0.246028 0.229272 0.142044
v -0.239655 0.465917 0.138365
v -0.246028 0.414516 0.142044
v -0.138365 0.177871 0.239655
v -0.142044 0.229272 0.246028
v -0.138365 0.465917 0.239655
v -0.142044 0.414516 0.246028
v -0.000000 0.177871 0.276730
v -0.000000 0.229272 0.284088
v -0.000000 0.465917 0.276730
v -0.000000 0.414516 0.284088
v 0.138365 0.177871 0.239655
v 0.142044 0.229272 0.246028
v 0.138365 0.465917 0.239655
v 0.142044 0.414516 0.246028
v 0.239655 0.177871 0.138365
v 0.246028 0.229272 0.142044
v 0.239655 0.465917 0.138365
v 0.246028 0.414516 0.142044
v 0.276730 0.177871 0.000000
v 0.284088 0.229272 0.000000
v 0.276730 0.465917 0.000000
v 0.284088 0.414516 0.000000
v 0.239655 0.177871 -0.138365
v 0.246028 0.229272 -0.142044
v 0.239655 0.465917 -0.138365
v 0.246028 0.414516 -0.142044
v 0.138365 0.177871 -0.239655
v 0.142044 0.229272 -0.246028
v 0.138365 0.465917 -0.239655
v 0.142044 0.414516 -0.246028
v -0.000000 0.446538 -0.305450
v -0.000000 0.469030 -0.297682
v 0.152725 0.197250 -0.264528
v 0.148841 0.164838 -0.257800
v 0.264528 0.197250 -0.152725
v 0.257800 0.174758 -0.148841
v 0.305450 0.197250 0.000000
v 0.297682 0.174758 0.000000
v 0.264528 0.197250 0.152725
v 0.257800 0.174758 0.148841
v 0.152725 0.197250 0.264528
v 0.148841 0.174758 0.257800
v -0.000000 0.197250 0.305450
v -0.000000 0.174758 0.297682
v -0.152725 0.197250 0.264528
v -0.148841 0.174758 0.257800
v -0.264528 0.197250 0.152725
v -0.257800 0.174758 0.148841
v -0.305450 0.197250 0.000000
v -0.297682 0.182896 0.000000
v -0.264528 0.197250 -0.152725
v -0.257800 0.170881 -0.148841
v -0.152725 0.197250 -0.264528
v -0.148841 0.182093 -0.257800
v -0.000000 0.174758 -0.297682
v -0.000000 0.197250 -0.305450
v -0.000000 0.229272 -0.305581
v 0.148841 0.452812 -0.257800
v 0.152725 0.446538 -0.264528
v 0.152790 0.229272 -0.264641
v 0.257800 0.469030 -0.148841
v 0.264528 0.446538 -0.152725
v 0.264641 0.229272 -0.152790
v 0.302040 0.456413 0.000000
v 0.305450 0.446538 0.000000
v 0.305581 0.229272 0.000000
v 0.257800 0.469030 0.148841
v 0.264528 0.446538 0.152725
v 0.264641 0.229272 0.152790
v 0.148841 0.469030 0.257800
v 0.152725 0.446538 0.264528
v 0.152790 0.229272 0.264641
v -0.000000 0.463825 0.297682
v -0.000000 0.446538 0.305450
v -0.000000 0.229272 0.305581
v -0.148841 0.469030 0.257800
v -0.152725 0.446538 0.264528
v -0.152790 0.229272 0.264641
v -0.257800 0.469030 0.148841
v -0.264528 0.446538 0.152725
v -0.264641 0.229272 0.152790
v -0.297682 0.469030 0.000000
v -0.305450 0.446538 0.000000
v -0.305581 0.229272 0.000000
v -0.257800 0.469030 -0.148841
v -0.264528 0.446538 -0.152725
v -0.264641 0.229272 -0.152790
v -0.148841 0.469030 -0.257800
v -0.152725 0.446538 -0.264528
v -0.152790 0.229272 -0.264641
v -0.152790 0.414516 -0.264641
v -0.000000 0.414516 -0.305581
v -0.264641 0.414516 -0.152790
v -0.305581 0.414516 0.000000
v -0.264641 0.430274 0.152790
v -0.152790 0.414516 0.264641
v -0.000000 0.414516 0.305581
v 0.152790 0.414516 0.264641
v 0.264641 0.414516 0.152790
v 0.305581 0.414516 0.000000
v 0.264641 0.414516 -0.152790
v 0.152790 0.414516 -0.264641
v 0.000000 0.029838 -0.224658
v 0.112329 0.029838 -0.194560
v 0.112329 0.613950 -0.194560
v 0.194560 0.029838 -0.112329
v 0.194560 0.613950 -0.112329
v 0.224658 0.613950 0.000000
v 0.194560 0.029838 0.112329
v 0.194560 0.613950 0.112329
v 0.112329 0.029838 0.194560
v 0.112329 0.613950 0.194560
v 0.000000 0.029838 0.224658
v 0.000000 0.596691 0.224658
v -0.112329 0.029838 0.194560
v -0.112329 0.613950 0.194560
v -0.194560 0.029838 0.112329
v -0.194560 0.613950 0.112329
v -0.194560 0.029838 -0.112329
v -0.194560 0.613950 -0.112329
v -0.112329 0.029838 -0.194560
v -0.112329 0.613950 -0.194560
v 0.000000 0.077934 -0.165238
v 0.082619 0.077934 -0.143100
v 0.080982 0.565854 -0.140265
v -0.000000 0.565854 -0.161964
v 0.143100 0.077934 -0.082619
v 0.140265 0.565854 -0.080982
v 0.165238 0.077934 0.000000
v 0.161964 0.565854 0.000000
v 0.143100 0.077934 0.082619
v 0.140265 0.565854 0.080982
v 0.082619 0.077934 0.143100
v 0.080982 0.565854 0.140265
v 0.000000 0.077934 0.165238
v -0.000000 0.565854 0.161964
v -0.082619 0.077934 0.143100
v -0.080982 0.565854 0.140265
v -0.143100 0.077934 0.082619
v -0.140265 0.565854 0.080982
v -0.165238 0.077934 0.000000
v -0.161964 0.565854 0.000000
v -0.143100 0.077934 -0.082619
v -0.140265 0.565854 -0.080982
v -0.082619 0.077934 -0.143100
v -0.080982 0.565854 -0.140265
v -0.160215 0.613950 -0.064180
v -0.160215 0.613950 0.064180
v -0.164296 0.573113 0.000000
v -0.207461 0.613950 0.064180
v -0.207461 0.613950 -0.064180
v -0.238963 0.573282 0.000000
v 0.026008 0.613950 -0.170443
v -0.026008 0.613950 -0.170443
v -0.000000 0.597401 -0.172097
v 0.000000 0.602485 -0.173330
v -0.026008 0.613950 -0.217689
v 0.026008 0.613950 -0.217689
v -0.000000 0.597470 -0.230455
v 0.000000 0.602485 -0.220576
v 0.168272 0.029838 -0.034111
v 0.168272 0.029838 0.034111
v 0.171874 0.051717 0.000000
v 0.172058 0.046069 0.000000
v 0.215518 0.029838 0.034111
v 0.215518 0.029838 -0.034111
v 0.232261 0.051453 0.000000
v 0.219304 0.046069 0.000000
v -0.161668 0.029838 0.058757
v -0.161668 0.029838 -0.058757
v -0.167873 0.067524 0.000000
v -0.168190 0.029838 0.000000
v -0.208914 0.029838 -0.058757
v -0.208914 0.029838 0.058757
v -0.237755 0.067070 0.000000
v -0.215436 0.029838 0.000000
v -0.160215 0.596799 -0.000000
v -0.207461 0.596799 0.000000
vn 0.1075 0.9884 -0.1075
vn -0.1469 -0.9884 0.0394
vn -0.0000 1.0000 -0.0000
vn -0.0000 -1.0000 -0.0000
vn -0.1075 0.9884 -0.1075
vn 0.0364 -0.9980 0.0515
vn 0.1318 0.9695 -0.2066
vn 0.6754 0.2963 0.6754
vn 0.0394 -0.9884 -0.1469
vn 0.1130 0.9695 -0.2175
vn 0.1469 0.9884 -0.0394
vn -0.1469 -0.9884 -0.0394
vn 0.0394 0.9884 0.1469
vn -0.2847 -0.9338 0.2165
vn -0.0234 0.9995 -0.0199
vn -0.1258 -0.9284 0.3497
vn 0.1460 0.9893 0.0021
vn 0.1075 -0.9884 -0.1075
vn -0.0309 -0.9993 -0.0200
vn 0.1469 0.9884 0.0394
vn -0.1075 -0.9884 -0.1075
vn -0.3299 -0.9338 0.1383
vn 0.0234 0.9995 -0.0199
vn -0.6695 -0.3217 -0.6695
vn 0.0748 -0.9970 0.0216
vn -0.2451 -0.3217 -0.9146
vn -0.2400 -0.9284 0.2838
vn -0.2451 0.3217 -0.9146
vn -0.2588 -0.0000 -0.9659
vn -0.7071 -0.0000 -0.7071
vn -0.6695 0.3217 -0.6695
vn -0.9146 -0.3217 -0.2451
vn -0.9659 -0.0000 -0.2588
vn 0.1460 0.9893 -0.0021
vn -0.6695 -0.3217 0.6695
vn -0.9659 -0.0000 0.2588
vn -0.0526 -0.9985 -0.0142
vn -0.9146 0.3217 -0.2451
vn -0.2451 -0.3217 0.9146
vn -0.7071 -0.0000 0.7071
vn -0.6695 0.3217 0.6695
vn 0.2451 -0.3217 0.9146
vn -0.2588 -0.0000 0.9659
vn -0.2216 0.3393 0.9142
vn 0.6695 -0.3217 0.6695
vn 0.2588 -0.0000 0.9659
vn 0.1075 0.9884 0.1075
vn 0.2216 0.3393 0.9142
vn 0.7071 -0.0000 0.7071
vn -0.0394 -0.9884 -0.1469
vn 0.6695 0.3217 0.6695
vn 0.9146 -0.3217 0.2451
vn 0.9659 -0.0000 0.2588
vn 0.9146 0.3217 0.2451
vn 0.6695 -0.3217 -0.6695
vn 0.9659 -0.0000 -0.2588
vn 0.9146 0.3217 -0.2451
vn 0.2451 -0.3217 -0.9146
vn 0.7071 -0.0000 -0.7071
vn 0.2588 -0.0000 -0.9659
vn 0.6695 0.3217 -0.6695
vn 0.2526 0.4624 -0.8499
vn 0.6098 0.4624 -0.6437
vn 0.9163 0.3164 -0.2455
vn 0.9163 0.3164 0.2455
vn 0.6708 0.3164 0.6708
vn 0.2365 0.3529 0.9053
vn -0.2365 0.3529 0.9053
vn -0.6708 0.3164 0.6708
vn -0.9163 0.3164 0.2455
vn -0.9163 0.3164 -0.2455
vn -0.6708 0.3164 -0.6708
vn -0.2455 0.3164 -0.9163
vn -0.2488 -0.3702 -0.8950
vn -0.2588 -0.0039 -0.9659
vn -0.6563 -0.3398 -0.6736
vn -0.7071 0.0039 -0.7071
vn -0.9097 -0.3457 -0.2300
vn -0.9659 0.0039 -0.2588
vn -0.8971 -0.3772 0.2302
vn -0.9660 0.0052 0.2586
vn -0.6708 -0.3164 0.6708
vn -0.7069 0.0052 0.7073
vn -0.2455 -0.3164 0.9163
vn -0.2588 0.0039 0.9659
vn 0.2455 -0.3164 0.9163
vn 0.2588 0.0039 0.9659
vn 0.6708 -0.3164 0.6708
vn 0.7071 0.0039 0.7071
vn 0.9163 -0.3164 0.2455
vn 0.9659 0.0039 0.2588
vn 0.9163 -0.3164 -0.2455
vn 0.9659 0.0039 -0.2588
vn 0.6880 -0.2636 -0.6761
vn 0.7071 0.0039 -0.7071
vn 0.2416 -0.2636 -0.9339
vn 0.2588 -0.0039 -0.9659
vn -0.2588 0.0039 -0.9659
vn 0.2588 0.0039 -0.9659
vn -0.7071 -0.0039 -0.7071
vn -0.9659 -0.0039 -0.2588
vn -0.9659 -0.0039 0.2588
vn -0.7071 -0.0039 0.7071
vn -0.2588 -0.0039 0.9659
vn 0.2588 -0.0039 0.9659
vn 0.7071 -0.0039 0.7071
vn 0.9659 -0.0039 0.2588
vn 0.9659 -0.0039 -0.2588
vn 0.7071 -0.0039 -0.7071
vn 0.2472 0.2963 0.9225
vn -0.9383 -0.2375 -0.2514
vn 0.9146 -0.3217 -0.2451
vn -0.0305 0.9793 0.1999
vn 0.0305 0.9793 0.1999
vn 0.9383 -0.2375 0.2514
vn 0.9225 0.2963 0.2472
vn -0.9146 -0.3217 0.2451
vn 0.2451 0.3217 -0.9146
vn 0.6869 -0.2375 -0.6869
vn -0.9225 0.2963 -0.2472
vn 0.2514 -0.2375 0.9383
vn -0.2514 -0.2375 0.9383
vn 0.6754 0.2963 -0.6754
vn -0.6869 -0.2375 -0.6869
vn -0.6754 0.2963 -0.6754
vn -0.6869 -0.2375 0.6869
vn -0.2514 -0.2375 -0.9383
vn -0.6754 0.2963 0.6754
vn -0.2472 0.2963 -0.9225
vn -0.9146 0.3217 0.2451
vn 0.2514 -0.2375 -0.9383
vn -0.9225 0.2963 0.2472
vn 0.6869 -0.2375 0.6869
vn 0.2472 0.2963 -0.9225
vn 0.9855 -0.1698 -0.0000
vn -0.5982 0.8013 -0.0000
vn -0.0000 0.9661 -0.2582
vn 0.9225 0.2963 -0.2472
vn -0.2072 0.2306 0.9507
vn 0.2072 0.2306 0.9507
vn 0.3243 0.8435 -0.4282
vn -0.3243 0.8435 -0.4282
vn 0.4034 0.9150 -0.0000
vn -0.4034 0.9150 -0.0000
vn -0.2472 0.2963 0.9225
vn -0.9916 -0.0323 0.1254
vn -0.9916 -0.0323 -0.1254
vn 0.3566 -0.8583 -0.3688
vn 0.3566 -0.8583 0.3688
vn -0.0000 -0.9030 -0.4297
vn -0.0000 -0.9030 0.4297
vn -0.9383 -0.2375 0.2514
vn 0.9939 -0.0084 -0.1103
vn 0.9939 -0.0084 0.1103
vn -0.8538 -0.5118 -0.0948
vn -0.8538 -0.5118 0.0948
vn 0.9383 -0.2375 -0.2514
vn -0.0000 0.9661 0.2582
vt 0.416667 0.853968
vt 0.333333 0.853968
vt 0.750000 0.646032
vt 0.833333 0.646032
vt 0.166667 0.687302
vt 0.083333 0.687302
vt 0.416667 0.812698
vt 0.500000 0.812698
vt 0.666667 0.853968
vt 0.583333 0.853968
vt 0.166667 0.646032
vt 0.250000 0.646032
vt 0.416667 0.687302
vt 0.333333 0.687302
vt 0.666667 0.812698
vt 0.750000 0.812698
vt 0.000000 0.812698
vt 0.083333 0.812698
vt 0.916667 0.853968
vt 0.833333 0.853968
vt 0.155236 0.414136
vt 0.085864 0.344764
vt 0.416667 0.646032
vt 0.500000 0.646032
vt 0.666667 0.687302
vt 0.583333 0.687302
vt 0.914136 0.155236
vt 0.929763 0.213559
vt 0.980236 0.213559
vt 0.957846 0.130000
vt 1.000000 0.853968
vt 0.916667 0.812698
vt 1.000000 0.812698
vt 0.250000 0.853968
vt 0.666667 0.646032
vt 0.083333 0.853968
vt 0.000000 0.853968
vt 0.916667 0.687302
vt 0.833333 0.687302
vt 0.333333 0.812698
vt 0.500000 0.853968
vt 0.166667 0.812698
vt 0.916667 0.646032
vt 1.000000 0.646032
vt 0.250000 0.687302
vt 0.583333 0.812698
vt 1.000000 0.687302
vt 0.750000 0.853968
vt 0.750000 0.842393
vt 0.333333 0.646032
vt 0.500000 0.687302
vt 0.000000 0.646032
vt 0.083333 0.646032
vt 0.833333 0.812698
vt 0.166667 0.853968
vt 0.583333 0.646032
vt 0.000000 0.687302
vt 0.750000 0.687302
vt 0.250000 0.812698
vt 0.166667 0.500000
vt 0.083333 0.500000
vt 0.000000 0.500000
vt 0.083333 1.000000
vt 0.019294 1.000000
vt 0.000000 0.983743
vt 0.166667 1.000000
vt 0.206410 0.500000
vt 0.250000 0.536728
vt 0.416667 0.500000
vt 0.333333 0.500000
vt 0.250000 0.959882
vt 0.202387 1.000000
vt 0.500000 0.500000
vt 0.416667 1.000000
vt 0.333333 1.000000
vt 0.583333 0.500000
vt 0.500000 1.000000
vt 0.666667 0.500000
vt 0.583333 1.000000
vt 0.666667 1.000000
vt 0.724694 0.500000
vt 0.750000 0.521322
vt 0.750000 1.000000
vt 0.916667 0.500000
vt 0.833333 0.500000
vt 0.833333 1.000000
vt 1.000000 0.500000
vt 0.916667 1.000000
vt 1.000000 0.833333
vt 0.916667 0.833333
vt 0.833333 0.833333
vt 0.750000 0.833333
vt 0.666667 0.833333
vt 0.583333 0.833333
vt 0.500000 0.833333
vt 0.416667 0.833333
vt 0.333333 0.833333
vt 0.250000 0.833333
vt 0.166667 0.833333
vt 0.083333 0.833333
vt 0.000000 0.833333
vt 0.083333 0.666667
vt 0.000000 0.666667
vt 0.166667 0.666667
vt 0.250000 0.666667
vt 0.333333 0.666667
vt 0.416667 0.666667
vt 0.500000 0.666667
vt 0.583333 0.666667
vt 0.666667 0.666667
vt 0.750000 0.666667
vt 0.833333 0.666667
vt 0.916667 0.666667
vt 1.000000 0.666667
vt 0.844764 0.414136
vt 0.750000 0.439528
vt 0.750000 0.490000
vt 0.870000 0.457846
vt 0.250000 0.439528
vt 0.222216 0.432083
vt 0.914136 0.344764
vt 0.957846 0.370000
vt 0.344764 0.414136
vt 0.414136 0.344764
vt 0.457846 0.370000
vt 0.370000 0.457846
vt 0.939528 0.250000
vt 0.929763 0.213559
vt 0.939528 0.250000
vt 0.439528 0.250000
vt 0.490000 0.250000
vt 0.775306 0.500000
vt 0.414136 0.155236
vt 0.457846 0.130000
vt 0.844764 0.085864
vt 0.870000 0.042154
vt 0.344764 0.085864
vt 0.370000 0.042154
vt 0.750000 0.060472
vt 0.750000 0.010000
vt 0.250000 0.060472
vt 0.250000 0.010000
vt 0.655236 0.085864
vt 0.630000 0.042154
vt 0.155236 0.085864
vt 0.130000 0.042154
vt 0.585864 0.155236
vt 0.542154 0.130000
vt 0.085864 0.155236
vt 0.042154 0.130000
vt 0.560472 0.250000
vt 0.577291 0.312770
vt 0.585864 0.344764
vt 0.078844 0.318562
vt 0.060472 0.250000
vt 0.250000 0.536728
vt 0.293590 0.500000
vt 0.078844 0.181438
vt 0.028371 0.181438
vt 0.655236 0.414136
vt 0.542154 0.370000
vt 0.630000 0.457846
vt 0.130000 0.457846
vt 0.042154 0.370000
vt 1.000000 0.983743
vt 0.980706 1.000000
vt 0.222216 0.482555
vt 0.277784 0.432083
vt 0.277784 0.482555
vt 0.577291 0.187230
vt 0.526819 0.187230
vt 0.028371 0.318562
vt 0.526819 0.312770
vt 0.929763 0.286441
vt 0.980236 0.286441
vt 0.297613 1.000000
vt 0.250000 0.959882
vt 0.078844 0.250000
vt 0.028371 0.215719
vt 0.028371 0.250000
vt 0.010000 0.250000
vt 0.028371 0.250000
vt 0.250000 0.435167
vt 0.222216 0.432083
vt 0.000757 1.000000
vt 0.000000 1.000000
vt 0.250000 0.485639
vt 0.933808 0.250000
vt 0.984280 0.250000
vt 0.990000 0.250000
vt 0.980236 0.250000
vt 0.570325 0.250000
vt 0.577291 0.312770
vt 0.526819 0.250000
vt 0.519852 0.250000
vt 0.510000 0.250000
vt 0.577291 0.187230
s 0
usemtl Fass
f 20/21/8 18/22/8 182/22/8 184/21/8
f 7/27/4 200/28/4 203/29/4 147/30/4
f 157/60/24 29/11/24 21/53/24 159/61/24
f 159/61/26 21/53/26 23/52/26 141/62/26
f 25/36/28 160/63/28 195/64/28 197/65/28 27/37/28
f 22/6/29 26/18/29 28/17/29 24/57/29
f 30/5/30 32/42/30 26/18/30 22/6/30
f 31/55/31 158/66/31 160/63/31 25/36/31
f 211/67/32 213/68/32 33/12/32 29/11/32 157/60/32
f 34/45/33 36/59/33 32/42/33 30/5/33
f 153/69/35 41/23/35 37/50/35 155/70/35
f 38/14/36 40/40/36 36/59/36 34/45/36
f 35/34/38 190/71/38 189/72/38 158/66/38 31/55/38
f 151/73/39 45/24/39 41/23/39 153/69/39
f 42/13/40 44/7/40 40/40/40 38/14/40
f 43/1/41 154/74/41 156/75/41 39/2/41
f 149/76/42 49/56/42 45/24/42 151/73/42
f 46/51/43 48/8/43 44/7/43 42/13/43
f 47/41/44 152/77/44 154/74/44 43/1/44
f 147/78/45 53/35/45 49/56/45 149/76/45
f 50/26/46 52/46/46 48/8/46 46/51/46
f 51/10/48 150/79/48 152/77/48 47/41/48
f 54/25/49 56/15/49 52/46/49 50/26/49
f 55/9/51 148/80/51 150/79/51 51/10/51
f 203/81/52 205/82/52 57/3/52 53/35/52 147/78/52
f 58/58/53 60/16/53 56/15/53 54/25/53
f 59/48/54 146/83/54 148/80/54 55/9/54
f 142/84/55 65/43/55 61/4/55 144/85/55
f 62/39/56 64/54/56 60/16/56 58/58/56
f 63/20/57 145/86/57 146/83/57 59/48/57
f 141/87/58 23/44/58 65/43/58 142/84/58
f 66/38/59 68/32/59 64/54/59 62/39/59
f 24/47/60 28/33/60 68/32/60 66/38/60
f 67/19/61 143/88/61 145/86/61 63/20/61
f 2/115/4 1/116/4 141/117/4 142/118/4
f 193/119/110 192/120/110 20/21/110 184/21/110 164/119/110
f 4/121/4 2/115/4 142/118/4 144/122/4
f 3/123/3 5/124/3 145/125/3 143/126/3
f 201/127/111 200/128/111 7/27/111 169/27/111 167/129/111
f 5/124/3 6/130/3 146/131/3 145/125/3
f 144/85/112 61/4/112 57/3/112 205/82/112 204/132/112
f 6/130/3 8/133/3 148/134/3 146/131/3
f 9/135/4 7/27/4 147/30/4 149/136/4
f 8/133/3 10/137/3 150/138/3 148/134/3
f 11/139/4 9/135/4 149/136/4 151/140/4
f 10/137/113 12/141/113 152/142/113 150/138/113
f 13/143/4 11/139/4 151/140/4 153/144/4
f 12/141/114 14/145/114 154/146/114 152/142/114
f 15/147/4 13/143/4 153/144/4 155/148/4
f 14/145/3 16/149/3 156/150/3 154/146/3
f 209/151/115 208/152/115 17/153/115 181/153/115 179/151/115
f 18/22/116 185/154/116 187/155/116 180/155/116 182/22/116
f 155/70/117 37/50/117 33/12/117 213/156/117 212/157/117
f 16/149/3 186/158/3 188/159/3 156/150/3
f 19/160/4 17/153/4 157/161/4 159/162/4
f 18/22/3 20/21/3 160/163/3 158/164/3
f 1/116/4 19/160/4 159/162/4 141/117/4
f 27/31/118 197/165/118 196/166/118 143/88/118 67/19/118
f 163/123/3 164/119/3 184/21/3 182/22/3 180/155/3 178/149/3 176/145/3 174/141/3 172/137/3 170/133/3 168/130/3 166/124/3
f 161/116/4 162/115/4 165/121/4 167/129/4 169/27/4 171/135/4 173/139/4 175/143/4 177/147/4 179/151/4 181/153/4 183/160/4
f 13/143/119 15/147/119 177/147/119 175/143/119
f 8/133/120 6/130/120 168/130/120 170/133/120
f 19/160/121 1/116/121 161/116/121 183/160/121
f 1/116/122 2/115/122 162/115/122 161/116/122
f 16/149/123 14/145/123 176/145/123 178/149/123
f 7/27/124 9/135/124 171/135/124 169/27/124
f 20/21/3 192/120/3 195/167/3 160/163/3
f 191/168/3 3/123/3 143/126/3 196/169/3
f 207/170/4 15/147/4 155/148/4 212/171/4
f 10/137/125 8/133/125 170/133/125 172/137/125
f 2/115/126 4/121/126 165/121/126 162/115/126
f 185/154/3 18/22/3 158/164/3 189/172/3
f 9/135/127 11/139/127 173/139/127 171/135/127
f 5/124/128 3/123/128 163/123/128 166/124/128
f 17/153/4 208/152/4 211/173/4 157/161/4
f 12/141/129 10/137/129 172/137/129 174/141/129
f 199/174/4 4/121/4 144/122/4 204/175/4
f 39/2/130 156/75/130 188/176/130 190/177/130 35/34/130
f 11/139/131 13/143/131 175/143/131 173/139/131
f 6/130/132 5/124/132 166/124/132 168/130/132
f 17/153/133 19/160/133 183/160/133 181/153/133
f 14/145/134 12/141/134 174/141/134 176/145/134
f 185/154/135 215/178/135 186/158/135 187/155/135
f 188/159/136 216/179/136 189/180/136 190/181/136
f 215/178/137 216/182/137 188/159/137 186/158/137
f 187/155/138 186/158/138 16/149/138 178/149/138 180/155/138
f 191/168/139 194/183/139 193/119/139
f 194/183/140 192/184/140 193/119/140
f 195/64/141 198/185/141 197/65/141
f 198/185/142 196/186/142 197/65/142
f 195/167/143 192/120/143 194/119/143 198/187/143
f 198/187/144 194/119/144 191/168/144 196/169/144
f 3/123/145 191/168/145 193/119/145 164/119/145 163/123/145
f 199/174/146 202/188/146 201/127/146
f 202/188/147 200/128/147 201/127/147
f 203/29/148 206/189/148 205/190/148
f 206/189/149 204/191/149 205/190/149
f 203/29/150 200/28/150 202/129/150 206/189/150
f 206/189/151 202/129/151 199/174/151 204/175/151
f 4/121/152 199/174/152 201/127/152 167/129/152 165/121/152
f 207/170/153 210/192/153 209/151/153
f 210/192/154 208/193/154 209/151/154
f 211/194/155 214/195/155 213/196/155
f 214/195/156 212/171/156 213/196/156
f 211/173/4 208/152/4 210/151/4 214/195/4
f 214/195/4 210/151/4 207/170/4 212/171/4
f 15/147/157 207/197/157 209/151/157 179/151/157 177/147/157
f 185/154/158 189/172/158 216/182/158 215/178/158
usemtl Metall
f 43/1/1 39/2/1 117/2/1 114/1/1
f 57/3/2 61/4/2 74/4/2 76/3/2
f 30/5/3 22/6/3 128/6/3 125/5/3
f 44/7/4 48/8/4 135/8/4 134/7/4
f 55/9/5 51/10/5 108/10/5 105/9/5
f 29/11/6 33/12/6 88/12/6 90/11/6
f 42/13/3 38/14/3 119/14/3 116/13/3
f 56/15/4 60/16/4 138/16/4 137/15/4
f 28/17/4 26/18/4 129/18/4 130/17/4
f 67/19/7 63/20/7 99/20/7 96/19/7
f 41/23/9 45/24/9 82/24/9 84/23/9
f 54/25/3 50/26/3 110/26/3 107/25/3
f 27/31/10 67/19/10 96/19/10 70/31/10
f 68/32/4 28/33/4 130/33/4 140/32/4
f 39/2/11 35/34/11 120/34/11 117/2/11
f 53/35/12 57/3/12 76/3/12 78/35/12
f 25/36/13 27/37/13 70/37/13 126/36/13
f 66/38/3 62/39/3 101/39/3 98/38/3
f 40/40/14 44/7/14 134/7/14 133/40/14
f 51/10/15 47/41/15 111/41/15 108/10/15
f 26/18/4 32/42/4 131/42/4 129/18/4
f 65/43/16 23/44/16 93/44/16 72/43/16
f 38/14/3 34/45/3 122/45/3 119/14/3
f 52/46/4 56/15/4 137/15/4 136/46/4
f 24/47/3 66/38/3 98/38/3 95/47/3
f 63/20/17 59/48/17 102/49/17 99/20/17
f 37/50/18 41/23/18 84/23/18 86/50/18
f 50/26/3 46/51/3 113/51/3 110/26/3
f 23/52/19 21/53/19 92/53/19 93/52/19
f 64/54/4 68/32/4 140/32/4 139/54/4
f 35/34/20 31/55/20 123/55/20 120/34/20
f 49/56/21 53/35/21 78/35/21 80/56/21
f 22/6/3 24/57/3 95/57/3 128/6/3
f 62/39/3 58/58/3 104/58/3 101/39/3
f 36/59/22 40/40/22 133/40/22 132/59/22
f 47/41/23 43/1/23 114/1/23 111/41/23
f 21/53/25 29/11/25 90/11/25 92/53/25
f 61/4/27 65/43/27 72/43/27 74/4/27
f 34/45/3 30/5/3 125/5/3 122/45/3
f 48/8/4 52/46/4 136/46/4 135/8/4
f 59/48/34 55/9/34 105/9/34 102/49/34
f 33/12/37 37/50/37 86/50/37 88/12/37
f 46/51/3 42/13/3 116/13/3 113/51/3
f 60/16/4 64/54/4 139/54/4 138/16/4
f 31/55/47 25/36/47 126/36/47 123/55/47
f 45/24/50 49/56/50 80/56/50 82/24/50
f 58/58/3 54/25/3 107/25/3 104/58/3
f 32/42/4 36/59/4 132/59/4 131/42/4
f 69/89/62 70/31/62 96/19/62 97/90/62
f 97/90/63 96/19/63 99/20/63 100/91/63
f 100/91/64 99/20/64 102/49/64 103/92/64
f 103/92/65 102/49/65 105/9/65 106/93/65
f 106/93/66 105/9/66 108/10/66 109/94/66
f 109/94/67 108/10/67 111/41/67 112/95/67
f 112/95/68 111/41/68 114/1/68 115/96/68
f 115/96/69 114/1/69 117/2/69 118/97/69
f 118/97/70 117/2/70 120/34/70 121/98/70
f 121/98/71 120/34/71 123/55/71 124/99/71
f 124/99/72 123/55/72 126/36/72 127/100/72
f 127/100/73 126/36/73 70/37/73 69/101/73
f 92/53/74 91/102/74 94/103/74 93/52/74
f 91/102/75 128/6/75 95/57/75 94/103/75
f 90/11/76 89/104/76 91/102/76 92/53/76
f 129/18/77 131/42/77 124/99/77 127/100/77
f 88/12/78 87/105/78 89/104/78 90/11/78
f 131/42/79 132/59/79 121/98/79 124/99/79
f 86/50/80 85/106/80 87/105/80 88/12/80
f 132/59/81 133/40/81 118/97/81 121/98/81
f 84/23/82 83/107/82 85/106/82 86/50/82
f 133/40/83 134/7/83 115/96/83 118/97/83
f 82/24/84 81/108/84 83/107/84 84/23/84
f 134/7/85 135/8/85 112/95/85 115/96/85
f 80/56/86 79/109/86 81/108/86 82/24/86
f 135/8/87 136/46/87 109/94/87 112/95/87
f 78/35/88 77/110/88 79/109/88 80/56/88
f 136/46/89 137/15/89 106/93/89 109/94/89
f 76/3/90 75/111/90 77/110/90 78/35/90
f 137/15/91 138/16/91 103/92/91 106/93/91
f 74/4/92 73/112/92 75/111/92 76/3/92
f 138/16/93 139/54/93 100/91/93 103/92/93
f 72/43/94 71/113/94 73/112/94 74/4/94
f 139/54/95 140/32/95 97/90/95 100/91/95
f 93/44/96 94/114/96 71/113/96 72/43/96
f 94/114/97 95/47/97 98/38/97 71/113/97
f 129/18/98 127/100/98 69/101/98 130/17/98
f 130/33/99 69/89/99 97/90/99 140/32/99
f 89/104/100 125/5/100 128/6/100 91/102/100
f 87/105/101 122/45/101 125/5/101 89/104/101
f 85/106/102 119/14/102 122/45/102 87/105/102
f 83/107/103 116/13/103 119/14/103 85/106/103
f 81/108/104 113/51/104 116/13/104 83/107/104
f 79/109/105 110/26/105 113/51/105 81/108/105
f 77/110/106 107/25/106 110/26/106 79/109/106
f 75/111/107 104/58/107 107/25/107 77/110/107
f 73/112/108 101/39/108 104/58/108 75/111/108
f 71/113/109 98/38/109 101/39/109 73/112/109
