# Blender 3.6.0
# www.blender.org
mtllib torch.mtl
o Torch.002
v -1.961993 1.180429 -0.020667
v -1.961993 2.369910 -0.094282
v -1.897954 1.180429 0.016306
v -1.834201 2.369910 -0.020502
v -1.897954 1.180429 0.090251
v -1.834201 2.369910 0.127059
v -1.961993 1.180429 0.127224
v -1.961993 2.369910 0.200840
v -2.026032 1.180429 0.090251
v -2.089785 2.369910 0.127059
v -2.026032 1.180429 0.016306
v -2.089785 2.369910 -0.020502
v -1.961993 2.369910 -0.128965
v -1.804165 2.369910 -0.037843
v -1.804165 2.369910 0.144401
v -1.961993 2.369910 0.235523
v -2.119821 2.369910 0.144401
v -2.119821 2.369910 -0.037843
v -1.961993 2.382654 -0.128965
v -1.804165 2.382654 -0.037843
v -1.804165 2.382654 0.144401
v -1.961993 2.382654 0.235523
v -2.119821 2.382654 0.144401
v -2.119821 2.382654 -0.037843
v -1.961993 2.382654 -0.116640
v -1.814840 2.382654 -0.031680
v -1.814840 2.382654 0.138238
v -1.961993 2.382654 0.223197
v -2.109147 2.382654 0.138238
v -2.109147 2.382654 -0.031680
v -1.961993 2.392873 -0.105609
v -1.824392 2.392873 -0.026165
v -1.824392 2.392873 0.132722
v -1.961993 2.392873 0.212166
v -2.099594 2.392873 0.132722
v -2.099594 2.392873 -0.026165
v -1.961993 2.392873 -0.113005
v -1.817987 2.392873 -0.029863
v -1.817987 2.392873 0.136420
v -1.961993 2.392873 0.219562
v -2.105999 2.392873 0.136420
v -2.105999 2.392873 -0.029863
v -1.961993 2.406808 -0.106309
v -1.823786 2.406808 -0.026515
v -1.823786 2.406808 0.133073
v -1.961993 2.406808 0.212867
v -2.100200 2.406808 0.133073
v -2.100200 2.406808 -0.026515
v -1.961993 2.470442 -0.119153
v -1.812663 2.470442 -0.032937
v -1.812663 2.470442 0.139494
v -1.961993 2.470442 0.225710
v -2.111323 2.470442 0.139494
v -2.111323 2.470442 -0.032937
v -1.961993 2.470442 -0.124538
v -1.807999 2.470442 -0.035630
v -1.807999 2.470442 0.142187
v -1.961993 2.470442 0.231095
v -2.115987 2.470442 0.142187
v -2.115987 2.470442 -0.035630
v -1.961993 2.486698 -0.096601
v -1.832193 2.486698 -0.021661
v -1.832193 2.486698 0.128219
v -1.961993 2.486698 0.203158
v -2.091793 2.486698 0.128219
v -2.091793 2.486698 -0.021661
v -1.804494 2.486698 -0.037653
v -1.961993 2.486698 -0.128585
v -1.804494 2.486698 0.144211
v -1.961993 2.486698 0.235142
v -2.119492 2.486698 0.144211
v -2.119492 2.486698 -0.037653
v -1.842098 2.474372 -0.015943
v -1.961993 2.474372 -0.085165
v -1.842098 2.474372 0.122500
v -1.961993 2.474372 0.191722
v -2.081889 2.474372 0.122500
v -2.081889 2.474372 -0.015943
v -1.836914 2.461997 -0.018936
v -1.961993 2.461997 -0.091151
v -1.836914 2.461997 0.125493
v -1.961993 2.461997 0.197708
v -2.087072 2.461997 0.125493
v -2.087072 2.461997 -0.018936
v -1.865882 2.446655 -0.002211
v -1.961993 2.446655 -0.057701
v -1.865882 2.446655 0.108769
v -1.961993 2.446655 0.164259
v -2.058105 2.446655 0.108769
v -2.058105 2.446655 -0.002211
v -1.850581 2.064301 0.117602
v -1.855193 1.978260 0.114940
v -1.904007 2.029652 0.146303
v -1.853406 2.011603 0.079096
v -1.895510 1.522266 0.009535
v -1.966124 1.522266 0.131842
v -2.036738 1.522266 0.091073
v -1.961993 1.485252 -0.039532
v -1.961993 1.559280 -0.044114
v -1.938602 1.522266 -0.015344
v -1.966124 1.522266 -0.016986
v -2.046337 1.559280 0.004583
v -2.042370 1.485252 0.006873
v -2.036738 1.522266 0.041316
v -2.036738 1.522266 0.023783
v -1.865882 2.425326 -0.002211
v -1.961993 2.425326 -0.057701
v -1.865882 2.425326 0.108769
v -1.961993 2.425326 0.164259
v -2.058105 2.425326 0.108769
v -2.058105 2.425326 -0.002211
v -1.964234 1.910213 0.163421
v -2.061016 1.910213 0.107543
v -1.964632 1.828467 0.156767
v -2.055901 1.828467 0.104073
v -1.863143 1.829920 0.110350
v -2.060700 1.827258 -0.003710
v -1.961993 1.829829 -0.060858
v -1.872496 1.840458 -0.001740
v -1.858632 1.914094 0.112954
v -2.065165 1.910556 -0.006287
v -1.867540 1.908982 -0.004169
v -1.961993 1.909667 -0.065799
vn -0.4993 -0.0535 -0.8648
vn 0.9926 -0.0473 -0.1118
vn 0.3953 -0.0467 0.9174
vn -0.4988 -0.0679 0.8640
vn -0.0000 -1.0000 -0.0000
vn 0.5551 -0.0250 -0.8314
vn -1.0000 -0.0000 -0.0000
vn -0.0000 1.0000 -0.0000
vn 0.5000 -0.0000 0.8660
vn 0.5000 -0.0000 -0.8660
vn -0.5000 -0.0000 -0.8660
vn -0.5000 -0.0000 0.8660
vn 1.0000 -0.0000 -0.0000
vn 0.3653 0.6829 0.6326
vn 0.3653 0.6829 -0.6326
vn -0.3653 0.6829 -0.6326
vn -0.3653 0.6829 0.6326
vn 0.7305 0.6829 -0.0000
vn -0.7305 0.6829 -0.0000
vn 0.4616 0.3842 0.7996
vn 0.9851 -0.1722 -0.0000
vn 0.4616 0.3842 -0.7996
vn -0.4616 0.3842 -0.7996
vn -0.4616 0.3842 0.7996
vn 0.9233 0.3842 -0.0000
vn -0.9233 0.3842 -0.0000
vn -0.9851 -0.1722 -0.0000
vn 0.4925 -0.1722 0.8531
vn 0.4925 -0.1722 -0.8531
vn -0.4925 -0.1722 -0.8531
vn -0.4925 -0.1722 0.8531
vn -0.9775 -0.2107 -0.0000
vn 0.3898 0.6264 0.6751
vn 0.4888 -0.2107 0.8466
vn 0.4888 -0.2107 -0.8466
vn -0.4888 -0.2107 -0.8466
vn -0.4888 -0.2107 0.8466
vn 0.9775 -0.2107 -0.0000
vn 0.9224 -0.3864 -0.0000
vn 0.3898 0.6264 -0.6751
vn -0.7795 0.6264 -0.0000
vn 0.7795 0.6264 -0.0000
vn -0.3898 0.6264 -0.6751
vn -0.3898 0.6264 0.6751
vn 0.2340 0.8837 0.4053
vn -0.4612 -0.3864 -0.7988
vn -0.4612 -0.3864 0.7988
vn 0.4612 -0.3864 0.7988
vn 0.4612 -0.3864 -0.7988
vn -0.9224 -0.3864 -0.0000
vn 0.2340 0.8837 -0.4053
vn -0.4680 0.8837 -0.0000
vn 0.4680 0.8837 -0.0000
vn -0.2340 0.8837 -0.4053
vn -0.2340 0.8837 0.4053
vn 0.7673 0.4500 0.4569
vn 0.6356 -0.4774 0.6067
vn -0.9985 -0.0345 0.0436
vn -0.9960 -0.0650 0.0610
vn -0.4999 -0.0177 0.8659
vn 0.5752 -0.0706 -0.8150
vn 0.0508 0.5237 -0.8504
vn 0.0479 -0.5939 -0.8031
vn -0.9680 -0.2510 -0.0000
vn -0.9886 0.1504 -0.0000
vn -0.4327 -0.5010 -0.7495
vn -0.4522 0.4266 -0.7833
vn 0.4242 -0.0630 0.9034
vn -0.9975 -0.0581 0.0405
vn 0.5500 -0.0598 -0.8330
vn 0.9948 -0.0616 -0.0807
vn 0.4685 -0.0637 0.8812
vn 0.9974 -0.0632 -0.0332
vn -0.9982 -0.0581 0.0158
vn 0.5192 -0.0603 -0.8525
vt 0.166667 0.500000
vt 0.166667 0.628133
vt -0.000000 0.628133
vt -0.000000 0.500000
vt 0.833333 0.500000
vt 0.833333 0.643692
vt 0.833333 0.777444
vt 0.666667 0.773014
vt 0.666667 0.500000
vt 0.502045 0.772404
vt 0.500000 0.643692
vt 0.500000 0.500000
vt 0.499153 0.806766
vt 0.500000 1.000000
vt 0.333333 1.000000
vt 0.334173 0.806765
vt 1.000000 0.500000
vt 1.000000 0.628133
vt 0.935039 0.643692
vt 0.750000 0.490000
vt 0.957846 0.370000
vt 0.957846 0.130000
vt 0.750000 0.010000
vt 0.542154 0.130000
vt 0.542154 0.370000
vt 0.166667 1.000000
vt 0.666667 1.000000
vt 0.833333 1.000000
vt 1.000000 1.000000
vt -0.000000 1.000000
vt 0.250000 0.447792
vt 0.078707 0.348896
vt 0.421293 0.348896
vt 0.457846 0.370000
vt 0.250000 0.490000
vt 0.421293 0.151104
vt 0.457846 0.130000
vt 0.250000 0.052208
vt 0.250000 0.010000
vt 0.078707 0.151104
vt 0.042154 0.130000
vt 0.042154 0.370000
vt 0.715724 0.849385
vt 0.588207 0.856972
vt 0.666667 0.835369
vt 0.666667 0.871537
vt 0.333333 0.500000
vt 0.333333 0.643692
vt 0.231627 0.643692
vt 0.331255 0.772403
vt 0.166667 0.771896
vt 0.166667 0.659250
vt 0.231627 0.643692
vt 0.935039 0.643692
vt 1.000000 0.659250
vt 1.000000 0.772976
vt -0.000000 0.643692
vt -0.000000 0.643211
vt 0.166667 0.659250
vt 0.166667 0.643692
vt 0.163099 0.628133
vt -0.000000 0.659250
vt -0.000000 0.772976
vt 0.666667 0.808397
vt 0.166667 0.806910
vt -0.000000 0.806536
vt 1.000000 0.806536
vt 0.833333 0.806248
s 0
usemtl Fass.004
f 11/1/1 103/2/1 98/3/1 1/4/1
f 3/5/2 95/6/2 119/7/2 116/8/2 5/9/2
f 5/9/3 116/8/3 114/10/3 96/11/3 7/12/3
f 112/13/4 8/14/4 10/15/4 113/16/4
f 10/15/5 8/14/5 16/14/5 17/15/5
f 1/17/6 98/18/6 100/19/6 95/6/6 3/5/6
f 1/20/5 3/21/5 5/22/5 7/23/5 9/24/5 11/25/5
f 18/26/7 17/15/7 23/15/7 24/26/7
f 6/27/5 4/28/5 14/28/5 15/27/5
f 12/26/5 10/15/5 17/15/5 18/26/5
f 4/28/5 2/29/5 13/29/5 14/28/5
f 8/14/5 6/27/5 15/27/5 16/14/5
f 2/30/5 12/26/5 18/26/5 13/30/5
f 16/14/9 15/27/9 21/27/9 22/14/9
f 14/28/10 13/29/10 19/29/10 20/28/10
f 13/30/11 18/26/11 24/26/11 19/30/11
f 17/15/12 16/14/12 22/14/12 23/15/12
f 15/27/13 14/28/13 20/28/13 21/27/13
f 49/30/5 54/26/5 60/26/5 55/30/5
f 53/15/5 52/14/5 58/14/5 59/15/5
f 51/27/5 50/28/5 56/28/5 57/27/5
f 54/26/5 53/15/5 59/15/5 60/26/5
f 52/14/5 51/27/5 57/27/5 58/14/5
f 50/28/5 49/29/5 55/29/5 56/28/5
f 78/32/39 77/40/39 83/40/39 84/32/39
f 80/31/45 84/32/45 90/32/45 86/31/45
f 76/38/46 75/36/46 81/36/46 82/38/46
f 73/33/47 74/31/47 80/31/47 79/33/47
f 74/31/48 78/32/48 84/32/48 80/31/48
f 77/40/49 76/38/49 82/38/49 83/40/49
f 75/36/50 73/33/50 79/33/50 81/36/50
f 86/31/9 90/32/9 111/32/9 107/31/9
f 83/40/51 82/38/51 88/38/51 89/40/51
f 81/36/52 79/33/52 85/33/52 87/36/52
f 84/32/53 83/40/53 89/40/53 90/32/53
f 82/38/54 81/36/54 87/36/54 88/38/54
f 79/33/55 80/31/55 86/31/55 85/33/55
f 94/43/56 93/44/56 92/45/56
f 93/44/57 94/43/57 91/46/57
f 9/47/58 97/48/58 104/49/58 103/2/58 11/1/58
f 97/48/59 115/50/59 117/51/59 102/52/59 104/53/59
f 7/12/60 96/11/60 97/48/60 9/47/60
f 100/54/61 99/55/61 118/56/61 119/7/61 95/6/61
f 98/3/62 101/57/62 100/58/62
f 101/57/63 99/57/63 100/58/63
f 102/59/64 105/60/64 104/49/64
f 105/60/65 103/61/65 104/49/65
f 102/59/66 99/62/66 101/57/66 105/60/66
f 105/60/67 101/57/67 98/3/67 103/2/67
f 102/59/1 117/51/1 118/63/1 99/62/1
f 106/33/8 107/31/8 111/32/8 110/40/8 109/38/8 108/36/8
f 89/40/10 88/38/10 109/38/10 110/40/10
f 87/36/7 85/33/7 106/33/7 108/36/7
f 90/32/13 89/40/13 110/40/13 111/32/13
f 88/38/11 87/36/11 108/36/11 109/38/11
f 85/33/12 86/31/12 107/31/12 106/33/12
f 114/10/4 112/13/4 113/16/4 115/50/4
f 96/11/4 114/10/4 115/50/4 97/48/4
f 114/10/68 116/8/68 120/64/68 112/13/68
f 117/51/69 115/50/69 113/16/69 121/65/69
f 118/63/1 117/51/1 121/65/1 123/66/1
f 119/7/70 118/56/70 123/67/70 122/68/70
f 116/8/71 119/7/71 122/68/71 120/64/71
f 112/13/72 120/64/72 92/45/72 93/44/72 91/46/72 6/27/72 8/14/72
f 120/64/73 122/68/73 4/28/73 6/27/73 91/46/73 94/43/73 92/45/73
f 121/65/74 113/16/74 10/15/74 12/26/74
f 123/66/1 121/65/1 12/26/1 2/30/1
f 122/68/75 123/67/75 2/29/75 4/28/75
usemtl Metall.004
f 45/27/21 44/28/21 50/28/21 51/27/21
f 48/26/27 47/15/27 53/15/27 54/26/27
f 46/14/28 45/27/28 51/27/28 52/14/28
f 44/28/29 43/29/29 49/29/29 50/28/29
f 43/30/30 48/26/30 54/26/30 49/30/30
f 47/15/31 46/14/31 52/14/31 53/15/31
usemtl D_metall.003
f 23/15/8 22/14/8 28/14/8 29/15/8
f 28/14/14 27/27/14 33/27/14 34/14/14
f 21/27/8 20/28/8 26/28/8 27/27/8
f 24/26/8 23/15/8 29/15/8 30/26/8
f 22/14/8 21/27/8 27/27/8 28/14/8
f 20/28/8 19/29/8 25/29/8 26/28/8
f 19/30/8 24/26/8 30/26/8 25/30/8
f 33/27/5 32/28/5 38/28/5 39/27/5
f 26/28/15 25/29/15 31/29/15 32/28/15
f 25/30/16 30/26/16 36/26/16 31/30/16
f 29/15/17 28/14/17 34/14/17 35/15/17
f 27/27/18 26/28/18 32/28/18 33/27/18
f 30/26/19 29/15/19 35/15/19 36/26/19
f 40/14/20 39/27/20 45/27/20 46/14/20
f 36/26/5 35/15/5 41/15/5 42/26/5
f 34/14/5 33/27/5 39/27/5 40/14/5
f 32/28/5 31/29/5 37/29/5 38/28/5
f 31/30/5 36/26/5 42/26/5 37/30/5
f 35/15/5 34/14/5 40/14/5 41/15/5
f 38/28/22 37/29/22 43/29/22 44/28/22
f 37/30/23 42/26/23 48/26/23 43/30/23
f 41/15/24 40/14/24 46/14/24 47/15/24
f 39/27/25 38/28/25 44/28/25 45/27/25
f 42/26/26 41/15/26 47/15/26 48/26/26
f 60/26/32 59/15/32 71/15/32 72/26/32
f 61/31/33 66/32/33 78/32/33 74/31/33
f 58/14/34 57/27/34 69/27/34 70/14/34
f 56/28/35 55/29/35 68/29/35 67/28/35
f 55/30/36 60/26/36 72/26/36 68/30/36
f 59/15/37 58/14/37 70/14/37 71/15/37
f 57/27/38 56/28/38 67/28/38 69/27/38
f 61/31/8 62/33/8 67/34/8 68/35/8
f 62/33/8 63/36/8 69/37/8 67/34/8
f 63/36/8 64/38/8 70/39/8 69/37/8
f 64/38/8 65/40/8 71/41/8 70/39/8
f 65/40/8 66/32/8 72/42/8 71/41/8
f 66/32/8 61/31/8 68/35/8 72/42/8
f 65/40/40 64/38/40 76/38/40 77/40/40
f 63/36/41 62/33/41 73/33/41 75/36/41
f 66/32/42 65/40/42 77/40/42 78/32/42
f 64/38/43 63/36/43 75/36/43 76/38/43
f 62/33/44 61/31/44 74/31/44 73/33/44
o Fire.002
v -1.961993 2.417798 0.053279
v -1.871081 2.487248 0.119330
v -1.996718 2.487247 0.160152
v -2.074367 2.487248 0.053279
v -1.996718 2.487247 -0.053595
v -1.871081 2.487248 -0.012772
v -1.921160 2.707368 0.158330
v -2.107372 2.747674 0.104583
v -2.051936 2.625365 -0.030447
v -1.904666 2.711689 -0.089414
v -1.796908 2.706342 0.034359
v -1.953649 2.964245 0.040056
v -1.982404 2.436561 0.116097
v -1.908557 2.436561 0.092102
v -1.928967 2.477383 0.154921
v -1.855120 2.477383 0.053279
v -1.908557 2.436561 0.014455
v -2.028044 2.436561 0.053279
v -2.048455 2.477383 0.116097
v -1.982404 2.436561 -0.009540
v -2.048455 2.477383 -0.009540
v -1.928967 2.477383 -0.048364
v -1.835316 2.552967 0.092102
v -1.842504 2.543435 0.014455
v -1.962405 2.582883 0.178487
v -1.880686 2.546592 0.154841
v -2.082568 2.562373 0.081147
v -2.038943 2.566087 0.154922
v -2.035841 2.543435 -0.048364
v -2.080889 2.559368 0.003500
v -1.879802 2.584802 -0.061586
v -1.953650 2.584803 -0.085581
v -1.794015 2.788455 0.114733
v -2.006415 2.737158 0.154921
v -2.065524 2.699286 -0.008465
v -1.986676 2.650856 -0.061586
v -1.860552 2.655365 -0.024991
v -1.940459 2.778314 0.115199
v -1.849599 2.713317 0.046295
v -2.031585 2.726400 0.088503
v -2.008523 2.777493 -0.006506
v -1.918980 2.768594 -0.045359
vn 0.1024 -0.9435 0.3151
vn 0.7002 -0.6617 0.2680
vn -0.2680 -0.9435 0.1947
vn -0.2680 -0.9435 -0.1947
vn 0.1024 -0.9435 -0.3151
vn 0.8883 -0.3715 0.2701
vn 0.0458 -0.2039 0.9779
vn -0.9125 -0.2261 0.3409
vn -0.5746 -0.3304 -0.7488
vn 0.5340 -0.3397 -0.7743
vn 0.8029 -0.2050 0.5598
vn -0.2762 -0.0844 0.9574
vn -0.9946 -0.1021 -0.0176
vn -0.3429 -0.1525 -0.9269
vn 0.8408 -0.1803 -0.5105
vn -0.0328 0.5127 0.8580
vn 0.2161 0.9476 -0.2354
vn -0.2785 0.2264 -0.9334
vn -0.5542 0.4179 -0.7198
vn -0.0389 0.7783 -0.6267
vn 0.8373 0.3365 -0.4309
vn 0.8358 0.3561 -0.4179
vn 0.8790 0.4098 -0.2437
vn -0.3497 0.3221 -0.8797
vn -0.3497 0.3223 -0.8797
vn -0.4989 0.2719 -0.8229
vn -0.9521 0.2975 -0.0711
vn -0.8039 0.5829 0.1184
vn 0.1908 0.9260 -0.3257
vn -0.4267 0.3127 0.8486
vn -0.5058 0.8610 0.0522
vn 0.1571 0.5439 0.8243
vn 0.7049 0.3082 0.6388
vn -0.0502 0.6926 -0.7196
vn -0.0687 0.6991 -0.7117
vn 0.7271 -0.1209 -0.6758
vn 0.8950 -0.0129 -0.4460
vn 0.8431 0.0478 -0.5356
vn -0.4025 0.1280 -0.9064
vn -0.4507 0.0970 -0.8874
vn -0.4607 0.1023 -0.8817
vn -0.7930 0.0351 -0.6082
vn -0.9939 0.1070 -0.0256
vn -0.9458 -0.0870 -0.3129
vn -0.4377 0.0832 0.8953
vn -0.3054 0.0581 0.9505
vn 0.0147 0.1551 0.9878
vn 0.2934 0.0531 0.9545
vn 0.8041 -0.1950 0.5617
vn 0.9706 -0.1850 0.1541
vn 0.3057 -0.1464 -0.9408
vn 0.2992 -0.2503 -0.9208
vn 0.0262 -0.3219 -0.9464
vn -0.7558 -0.0053 -0.6548
vn -0.7692 -0.2082 -0.6041
vn -0.8967 -0.3035 -0.3222
vn -0.8432 -0.1771 0.5075
vn -0.8503 -0.1318 0.5095
vn -0.5944 -0.2681 0.7581
vn 0.2999 0.0548 0.9524
vn 0.2137 -0.1480 0.9656
vn 0.5315 -0.3699 0.7620
vn 0.9632 -0.2626 -0.0569
vn 0.9729 -0.2227 -0.0627
vn 0.9050 -0.3304 -0.2680
vn 0.4713 -0.6617 -0.5831
vn 0.1876 -0.7947 -0.5773
vn -0.0385 -0.6617 -0.7488
vn -0.4089 -0.6617 -0.6284
vn -0.4911 -0.7947 -0.3568
vn -0.7240 -0.6617 -0.1947
vn -0.7240 -0.6617 0.1947
vn -0.4911 -0.7947 0.3568
vn -0.4089 -0.6617 0.6284
vn 0.7002 -0.6617 -0.2680
vn 0.6071 -0.7947 -0.0000
vn 0.3313 -0.9435 -0.0000
vn -0.0385 -0.6617 0.7488
vn 0.1876 -0.7947 0.5773
vn 0.4713 -0.6617 0.5831
vt 0.181819 0.000000
vt 0.227273 0.078731
vt 0.136365 0.078731
vt 0.272728 0.157461
vt 0.318182 0.078731
vt 0.363637 0.157461
vt 0.909091 0.000000
vt 0.954545 0.078731
vt 0.863636 0.078731
vt 0.727273 0.000000
vt 0.772727 0.078731
vt 0.681818 0.078731
vt 0.545455 0.000000
vt 0.590909 0.078731
vt 0.500000 0.078731
vt 0.318182 0.236191
vt 0.090910 0.157461
vt 0.181819 0.157461
vt 0.136365 0.236191
vt 0.818182 0.157461
vt 0.909091 0.157461
vt 0.863636 0.236191
vt 0.636364 0.157461
vt 0.727273 0.157461
vt 0.681818 0.236191
vt 0.454546 0.157461
vt 0.545455 0.157461
vt 0.500000 0.236191
vt 0.227273 0.236191
vt 0.045455 0.236191
vt 0.772727 0.236191
vt 0.590909 0.236191
vt 0.409092 0.236191
vt 0.181819 0.314921
vt 0.272728 0.314921
vt 0.227273 0.393651
vt 0.000000 0.314921
vt 0.090910 0.314921
vt 0.045455 0.393651
vt 0.727273 0.314921
vt 0.818182 0.314921
vt 0.772727 0.393651
vt 0.545455 0.314921
vt 0.636364 0.314921
vt 0.590909 0.393651
vt 0.363637 0.314921
vt 0.454546 0.314921
vt 0.409092 0.393651
vt 0.500000 0.393651
vt 0.454546 0.472382
vt 0.681818 0.393651
vt 0.636364 0.472382
vt 0.863636 0.393651
vt 0.818182 0.472382
vt 0.909091 0.314921
vt 0.136365 0.393651
vt 0.090910 0.472382
vt 0.318182 0.393651
vt 0.272728 0.472382
vt 0.954545 0.236191
vt 1.000000 0.157461
vt 0.409092 0.078731
vt 0.363637 0.000000
s 0
usemtl Fire_Red.003
f 124/69/76 137/70/76 136/71/76
f 124/75/78 136/76/78 141/77/78
f 124/78/79 141/79/79 143/80/79
f 124/81/80 143/82/80 140/83/80
f 125/72/86 146/84/86 149/97/86
f 130/102/91 156/103/91 161/104/91
f 131/105/92 157/106/92 163/107/92
f 132/108/93 158/109/93 164/110/93
f 133/111/94 159/112/94 165/113/94
f 134/114/95 160/115/95 162/116/95
f 162/116/96 165/117/96 135/118/96
f 162/116/97 160/115/97 165/117/97
f 160/115/98 133/111/98 165/117/98
f 165/113/99 164/119/99 135/120/99
f 165/113/100 159/112/100 164/119/100
f 159/112/101 132/108/101 164/119/101
f 164/110/102 163/121/102 135/122/102
f 164/110/103 158/109/103 163/121/103
f 158/109/104 131/123/104 163/121/104
f 163/107/105 161/124/105 135/125/105
f 163/107/106 157/106/106 161/124/106
f 157/106/107 130/102/107 161/124/107
f 161/104/108 162/126/108 135/127/108
f 161/104/109 156/103/109 162/126/109
f 156/103/110 134/114/110 162/126/110
f 147/101/111 160/115/111 134/114/111
f 147/101/112 154/96/112 160/115/112
f 154/96/113 133/111/113 160/115/113
f 155/100/114 159/112/114 133/111/114
f 152/93/116 132/108/116 159/112/116
f 150/90/119 131/123/119 158/109/119
f 151/98/120 157/106/120 131/105/120
f 148/87/122 130/102/122 157/106/122
f 149/97/123 156/103/123 130/102/123
f 149/97/124 146/84/124 156/103/124
f 146/84/125 134/114/125 156/103/125
f 154/96/126 155/100/126 133/111/126
f 154/96/127 145/95/127 155/100/127
f 150/90/132 151/128/132 131/123/132
f 150/90/133 142/89/133 151/128/133
f 140/83/142 143/82/142 145/95/142
f 141/77/148 136/76/148 142/89/148
f 139/74/151 137/73/151 140/130/151
f 137/73/152 124/131/152 140/130/152
usemtl Fire_Yellow.003
f 125/72/77 137/73/77 139/74/77
f 125/72/81 139/74/81 146/84/81
f 126/85/82 138/86/82 148/87/82
f 127/88/83 142/89/83 150/90/83
f 128/91/84 144/92/84 152/93/84
f 129/94/85 145/95/85 154/96/85
f 126/85/87 148/87/87 151/98/87
f 127/88/88 150/90/88 153/99/88
f 128/91/89 152/93/89 155/100/89
f 129/94/90 154/96/90 147/101/90
f 155/100/115 152/93/115 159/112/115
f 153/99/117 158/109/117 132/108/117
f 153/99/118 150/90/118 158/109/118
f 151/98/121 148/87/121 157/106/121
f 145/95/128 128/91/128 155/100/128
f 152/93/129 153/99/129 132/108/129
f 152/93/130 144/92/130 153/99/130
f 144/92/131 127/88/131 153/99/131
f 142/89/134 126/129/134 151/128/134
f 148/87/135 149/97/135 130/102/135
f 148/87/136 138/86/136 149/97/136
f 138/86/137 125/72/137 149/97/137
f 146/84/138 147/101/138 134/114/138
f 146/84/139 139/74/139 147/101/139
f 139/74/140 129/94/140 147/101/140
f 140/83/141 145/95/141 129/94/141
f 143/82/143 128/91/143 145/95/143
f 143/80/144 144/92/144 128/91/144
f 143/80/145 141/79/145 144/92/145
f 141/79/146 127/88/146 144/92/146
f 141/77/147 142/89/147 127/88/147
f 136/76/149 126/129/149 142/89/149
f 139/74/150 140/130/150 129/94/150
f 136/71/153 138/86/153 126/85/153
f 136/71/154 137/70/154 138/86/154
f 137/70/155 125/72/155 138/86/155
o Base.003
v -2.094918 1.718151 -0.049520
v -2.119328 1.983642 -0.063345
v -2.125672 1.681518 -0.161069
v -2.155729 2.008876 -0.161069
v -1.829068 1.718151 -0.049520
v -1.804658 1.983642 -0.063345
v -1.798314 1.681518 -0.161069
v -1.768258 2.008876 -0.161069
v -1.961993 1.631846 -0.161069
v -1.961993 2.108221 -0.161069
v -1.961993 1.677811 -0.049520
v -1.961993 2.064321 -0.063345
v -2.119328 1.911350 -0.019160
v -2.155729 1.919637 -0.161069
v -1.768258 1.919637 -0.161069
v -1.804658 1.911350 -0.019160
v -1.961993 1.911350 -0.059113
v -1.961993 1.919637 -0.161069
v -1.964997 1.908955 0.186472
v -2.080765 1.908996 0.119475
v -1.965676 1.826442 0.179744
v -2.075644 1.826485 0.115900
v -1.843433 1.827867 0.122390
v -2.080934 1.825412 -0.014797
v -1.961838 1.827982 -0.083928
v -1.852720 1.838686 -0.013491
v -1.838639 1.912829 0.124617
v -2.085418 1.909490 -0.017439
v -1.847606 1.907851 -0.015752
v -1.961397 1.908563 -0.088908
v -1.964244 1.910582 0.164473
v -2.061933 1.910582 0.108072
v -1.964646 1.828071 0.157756
v -2.056769 1.828071 0.104569
v -1.862208 1.829538 0.110905
v -2.061614 1.826852 -0.004222
v -1.961982 1.829447 -0.061905
v -1.871648 1.840175 -0.002234
v -1.857654 1.914500 0.113534
v -2.066120 1.910929 -0.006824
v -1.866645 1.909341 -0.004685
v -1.961982 1.910032 -0.066892
vn -0.9503 0.0821 0.3002
vn -0.0000 -0.0000 -1.0000
vn 0.9503 0.0821 0.3002
vn 0.0701 0.2096 0.9753
vn 0.2702 -0.8902 0.3668
vn -0.4237 0.8263 0.3712
vn 0.4237 0.8263 0.3712
vn -0.2702 -0.8902 0.3668
vn -0.0701 0.2096 0.9753
vn -0.1307 -0.0407 0.9906
vn 0.1307 -0.0407 0.9906
vn 0.9533 -0.1393 0.2681
vn -0.9533 -0.1393 0.2681
vn -0.5004 -0.0674 0.8632
vn 0.4326 -0.0622 0.8994
vn -0.9976 -0.0577 0.0372
vn -0.4997 -0.0523 -0.8646
vn 0.5425 -0.0606 -0.8379
vn 0.9957 -0.0640 -0.0671
vn 0.4988 0.0679 -0.8640
vn -0.4242 0.0630 -0.9034
vn 0.9975 0.0581 -0.0405
vn 0.4993 0.0535 0.8648
vn -0.5500 0.0598 0.8330
vn -0.9948 0.0616 0.0807
vn -0.0413 0.9966 0.0717
vn 0.0412 -0.9966 -0.0715
vn -0.0263 -0.9961 -0.0843
vn 0.0791 -0.9968 0.0062
vn 0.0560 -0.9969 0.0559
vn 0.0358 -0.9934 0.1087
vn -0.0828 -0.9934 -0.0794
vn 0.0117 0.9956 0.0928
vn 0.0827 0.9956 -0.0448
vn -0.0790 0.9969 0.0061
vn -0.0325 0.9970 -0.0702
vn 0.0465 0.9970 -0.0615
vt 0.548469 0.000000
vt 0.625000 0.000000
vt 0.625000 0.250000
vt 0.548469 0.250000
vt 0.548469 0.375000
vt 0.625000 0.375000
vt 0.625000 0.500000
vt 0.548469 0.500000
vt 0.625000 0.750000
vt 0.548469 0.750000
vt 0.548469 0.875000
vt 0.625000 0.875000
vt 0.625000 1.000000
vt 0.548469 1.000000
vt 0.250000 0.500000
vt 0.375000 0.500000
vt 0.375000 0.750000
vt 0.250000 0.750000
vt 0.750000 0.500000
vt 0.875000 0.500000
vt 0.875000 0.750000
vt 0.750000 0.750000
vt 0.125000 0.500000
vt 0.125000 0.750000
vt 0.375000 0.250000
vt 0.375000 0.375000
vt 0.375000 0.875000
vt 0.375000 1.000000
vt 0.375000 0.000000
vt 0.502045 0.772404
vt 0.499153 0.806766
vt 0.334173 0.806765
vt 0.331255 0.772403
vt 0.666667 0.773014
vt 0.666667 0.808397
vt 0.166667 0.771896
vt 0.166667 0.806910
vt -0.000000 0.772976
vt -0.000000 0.806536
vt 0.833333 0.777444
vt 1.000000 0.772976
vt 1.000000 0.806536
vt 0.833333 0.806248
s 0
usemtl D_metall.003
f 178/132/156 167/133/156 169/134/156 179/135/156
f 183/136/157 175/137/157 173/138/157 180/139/157
f 180/139/158 173/138/158 171/140/158 181/141/158
f 182/142/159 177/143/159 167/144/159 178/145/159
f 174/146/160 172/147/160 170/148/160 176/149/160
f 175/150/161 169/151/161 167/152/161 177/153/161
f 173/138/162 175/150/162 177/153/162 171/140/162
f 168/154/163 174/146/163 176/149/163 166/155/163
f 181/141/164 171/140/164 177/143/164 182/142/164
f 179/135/157 169/134/157 175/137/157 183/136/157
f 168/156/157 179/135/157 183/136/157 174/157/157
f 170/148/165 181/141/165 182/142/165 176/158/165
f 176/158/166 182/142/166 178/145/166 166/159/166
f 172/147/167 180/139/167 181/141/167 170/148/167
f 174/157/157 183/136/157 180/139/157 172/147/157
f 166/160/168 178/132/168 179/135/168 168/156/168
f 186/161/169 184/162/169 185/163/169 187/164/169
f 186/161/170 188/165/170 192/166/170 184/162/170
f 189/167/171 187/164/171 185/163/171 193/168/171
f 190/169/172 189/167/172 193/168/172 195/170/172
f 191/171/173 190/172/173 195/173/173 194/174/173
f 188/165/174 191/171/174 194/174/174 192/166/174
f 198/161/175 199/164/175 197/163/175 196/162/175
f 198/161/176 196/162/176 204/166/176 200/165/176
f 201/167/177 205/168/177 197/163/177 199/164/177
f 202/169/178 207/170/178 205/168/178 201/167/178
f 203/171/179 206/174/179 207/173/179 202/172/179
f 200/165/180 204/166/180 206/174/180 203/171/180
f 185/163/181 184/162/181 196/162/181 197/163/181
f 186/161/182 187/164/182 199/164/182 198/161/182
f 188/165/183 186/161/183 198/161/183 200/165/183
f 187/164/184 189/167/184 201/167/184 199/164/184
f 189/167/185 190/169/185 202/169/185 201/167/185
f 190/172/186 191/171/186 203/171/186 202/172/186
f 191/171/187 188/165/187 200/165/187 203/171/187
f 184/162/188 192/166/188 204/166/188 196/162/188
f 192/166/189 194/174/189 206/174/189 204/166/189
f 193/168/190 185/163/190 197/163/190 205/168/190
f 195/170/191 193/168/191 205/168/191 207/170/191
f 194/174/192 195/173/192 207/173/192 206/174/192
