# Blender 3.6.0
# www.blender.org
mtllib table.mtl
o table.001
v -2.614966 0.903224 0.658462
v -2.412184 0.903224 -1.017346
v -2.481867 0.903224 -0.259818
v -2.481867 1.262107 -0.259818
v -2.481867 0.903224 -0.618701
v -2.481867 1.262107 -0.618701
v -2.412185 0.903224 0.597573
v -2.407017 0.903224 -0.214408
v -2.407017 1.262107 -0.214407
v -2.407017 0.903224 0.144476
v -2.439410 1.262107 0.658462
v -2.614966 1.086551 0.658462
v -2.614967 1.262107 0.834018
v -2.563547 1.210688 0.658462
v -2.585421 1.232561 0.688008
v -2.614966 1.210688 0.709881
v -2.563547 1.262107 0.709881
v -2.236629 1.262107 -1.017346
v -2.412184 1.086551 -1.017346
v -2.412184 1.262107 -0.841790
v -2.360765 1.210688 -1.017346
v -2.382639 1.232562 -0.987800
v -2.412184 1.210688 -0.965927
v -2.360765 1.262107 -0.965927
v -2.412185 1.262107 0.422017
v -2.412185 1.086551 0.597573
v -2.236629 1.262107 0.597573
v -2.412185 1.210688 0.546154
v -2.382639 1.232561 0.568027
v -2.360766 1.210688 0.597573
v -2.360766 1.262107 0.546154
v -2.407017 1.262107 -0.031080
v -2.407017 1.086551 0.144476
v -2.231461 1.262107 0.144476
v -2.407017 1.210688 0.093057
v -2.377471 1.232561 0.114930
v -2.355597 1.210688 0.144476
v -2.355597 1.262107 0.093057
v -2.532490 0.903224 1.017346
v -2.614967 0.903224 0.934868
v -2.590810 0.903224 0.993189
v -2.614967 1.262107 0.934868
v -2.532490 1.262107 1.017346
v -2.590810 1.262107 0.993189
v -2.329707 0.903224 -0.658463
v -2.412185 0.903224 -0.740940
v -2.388027 0.903224 -0.682620
v -2.412185 1.262107 -0.740940
v -2.329707 1.262107 -0.658463
v -2.388027 1.262107 -0.682620
v -2.412185 0.903224 0.321167
v -2.329707 0.903224 0.238690
v -2.388027 0.903224 0.262847
v -2.329707 1.262107 0.238690
v -2.412185 1.262107 0.321167
v -2.388027 1.262107 0.262847
v -0.000000 0.903224 0.658463
v 0.000000 0.903224 -1.017346
v 0.000000 0.903224 -0.618701
v 0.000000 1.262107 -0.618701
v 0.000000 0.903224 -0.259818
v 0.000000 1.262107 -0.259818
v -0.000000 0.903224 0.597573
v -0.000000 0.903224 0.144476
v 0.000000 0.903224 -0.214407
v 0.000000 1.262107 -0.214407
v -0.000000 1.262107 0.658463
v 0.000000 1.262107 -1.017346
v -0.000000 1.262107 0.597573
v -0.000000 1.262107 0.144476
v -0.000000 0.903224 1.017346
v -0.000000 1.262107 1.017346
v 0.000000 0.903224 -0.658463
v 0.000000 1.262107 -0.658463
v -0.000000 0.903224 0.238690
v -0.000000 1.262107 0.238690
v 2.614966 0.903224 0.658463
v 2.412185 0.903224 -1.017345
v 2.481867 0.903224 -0.259817
v 2.481867 1.262107 -0.259817
v 2.481867 0.903224 -0.618700
v 2.481867 1.262107 -0.618700
v 2.412185 0.903224 0.597573
v 2.407017 0.903224 -0.214407
v 2.407017 1.262107 -0.214407
v 2.407017 0.903224 0.144476
v 2.439410 1.262107 0.658463
v 2.614966 1.086551 0.658463
v 2.614966 1.262107 0.834019
v 2.563547 1.210688 0.658463
v 2.585421 1.232561 0.688009
v 2.614966 1.210688 0.709882
v 2.563547 1.262107 0.709882
v 2.236629 1.262107 -1.017345
v 2.412185 1.086551 -1.017345
v 2.412185 1.262107 -0.841789
v 2.360766 1.210688 -1.017345
v 2.382639 1.232562 -0.987799
v 2.412185 1.210688 -0.965926
v 2.360766 1.262107 -0.965926
v 2.412185 1.262107 0.422018
v 2.412185 1.086551 0.597573
v 2.236629 1.262107 0.597573
v 2.412185 1.210688 0.546154
v 2.382639 1.232561 0.568028
v 2.360766 1.210688 0.597573
v 2.360766 1.262107 0.546154
v 2.407017 1.262107 -0.031079
v 2.407017 1.086551 0.144476
v 2.231461 1.262107 0.144476
v 2.407017 1.210688 0.093057
v 2.377471 1.232561 0.114931
v 2.355597 1.210688 0.144476
v 2.355597 1.262107 0.093057
v 2.532489 0.903224 1.017346
v 2.614966 0.903224 0.934869
v 2.590809 0.903224 0.993189
v 2.614966 1.262107 0.934869
v 2.532489 1.262107 1.017346
v 2.590809 1.262107 0.993189
v 2.329707 0.903224 -0.658462
v 2.412185 0.903224 -0.740939
v 2.388027 0.903224 -0.682619
v 2.412185 1.262107 -0.740939
v 2.329707 1.262107 -0.658462
v 2.388027 1.262107 -0.682619
v 2.412185 0.903224 0.321168
v 2.329707 0.903224 0.238690
v 2.388027 0.903224 0.262847
v 2.329707 1.262107 0.238690
v 2.412185 1.262107 0.321168
v 2.388027 1.262107 0.262847
v -2.481867 1.262107 -0.391774
v -2.481867 0.903224 -0.490070
v -1.901600 1.262107 -0.432197
v -1.901600 0.903224 -0.432197
v -2.481867 1.262107 -0.618621
v -2.481867 1.118612 -0.490070
v -2.339081 1.262107 -0.475829
v -2.481867 1.220266 -0.527973
v -2.457837 1.237957 -0.509308
v -2.440046 1.220079 -0.485899
v -2.440195 1.262107 -0.523767
v -2.481867 0.903224 -0.269509
v -2.481867 1.025490 -0.391774
v -2.359897 0.903224 -0.400271
v -2.481867 0.939035 -0.355963
v -2.461340 0.923801 -0.372627
v -2.446143 0.939035 -0.394263
v -2.446143 0.903224 -0.358452
v -2.063832 0.903224 -0.622779
v -2.119902 0.029941 -0.566709
v -1.756103 0.903224 -0.622779
v -1.700033 0.029941 -0.566709
v -2.057347 0.404273 -0.000001
v -2.057347 0.613963 -0.000001
v -2.057347 0.319203 -0.742124
v -2.057347 0.613963 -0.742124
v -1.762587 0.319203 -0.000000
v -1.762587 0.613963 -0.000000
v -1.762587 0.319203 -0.742124
v -1.762587 0.613963 -0.742124
v 0.000000 0.319203 -0.636654
v 0.000000 0.613963 -0.636654
v -1.902543 0.319203 -0.636654
v -1.902543 0.613963 -0.636654
v 0.000000 0.424475 -0.931414
v 0.000000 0.613963 -0.931414
v -1.902543 0.424475 -0.931414
v -1.902543 0.613963 -0.931414
v 2.063832 0.903224 -0.622778
v 2.119902 0.029941 -0.566708
v 2.057347 0.319203 0.000000
v 2.057347 0.613963 0.000000
v 2.057347 0.319203 -0.742123
v 2.057347 0.613963 -0.742123
v 1.762587 0.319203 0.000000
v 1.762587 0.613963 0.000000
v 1.762588 0.319203 -0.742123
v 1.762588 0.613963 -0.742123
v 1.902543 0.319203 -0.636654
v 1.902543 0.613963 -0.636653
v 1.902543 0.319203 -0.931414
v 1.902543 0.613963 -0.931413
v -2.063832 0.903224 0.930506
v -2.119902 0.029941 0.986576
v -2.063832 0.903224 0.622778
v -1.756104 0.903224 0.622778
v -2.057347 0.404273 0.742122
v -2.057347 0.613963 0.742123
v -1.762588 0.319203 0.742123
v -1.762588 0.613963 0.742123
v -0.000000 0.319203 0.636654
v -0.000000 0.613963 0.636654
v -1.902543 0.319203 0.636653
v -1.902543 0.613963 0.636653
v -0.000000 0.402377 0.931414
v -0.000000 0.613962 0.931414
v -1.902543 0.402377 0.931413
v -1.902543 0.613962 0.931413
v 2.063832 0.903224 0.930506
v 2.119902 0.029941 0.986577
v 2.063832 0.903224 0.622778
v 2.119902 0.029941 0.566708
v 2.057347 0.319203 0.742123
v 2.057347 0.613963 0.742123
v 1.762587 0.319203 0.742123
v 1.762587 0.613963 0.742123
v 1.902543 0.319203 0.636654
v 1.902543 0.613963 0.636654
v 1.902543 0.319203 0.931414
v 1.902543 0.613962 0.931414
v -1.897724 0.903224 -0.930507
v -2.063832 0.903224 -0.764399
v -1.980778 0.903224 -0.908252
v -2.041577 0.903224 -0.847453
v -2.119902 0.029941 -0.820469
v -1.953794 0.029941 -0.986577
v -2.097648 0.029941 -0.903523
v -2.036848 0.029941 -0.964323
v 2.063832 0.903224 -0.764398
v 1.897724 0.903224 -0.930506
v 2.041578 0.903224 -0.847452
v 1.980778 0.903224 -0.908252
v 1.953795 0.029941 -0.986576
v 2.119902 0.029941 -0.820469
v 2.036849 0.029941 -0.964322
v 2.097648 0.029941 -0.903523
v -1.922211 0.903224 0.930506
v -1.756104 0.903224 0.764398
v -1.839157 0.903224 0.908252
v -1.778358 0.903224 0.847452
v -1.700033 0.029941 0.820468
v -1.866141 0.029941 0.986576
v -1.722287 0.029941 0.903522
v -1.783087 0.029941 0.964322
v 1.756103 0.903224 0.764399
v 1.922211 0.903224 0.930506
v 1.778358 0.903224 0.847453
v 1.839157 0.903224 0.908252
v 1.866140 0.029941 0.986577
v 1.700033 0.029941 0.820469
v 1.783087 0.029941 0.964322
v 1.722287 0.029941 0.903523
v -1.756103 0.903224 -0.853451
v -1.833159 0.903224 -0.930507
v -1.777089 0.029941 -0.986577
v -1.700033 0.029941 -0.909521
v 1.897724 0.903224 -0.930506
v 1.756104 0.903224 -0.763492
v 1.700033 0.029941 -0.819562
v 1.867048 0.029941 -0.986576
v 1.756104 0.903224 -0.789793
v 1.923118 0.903224 -0.622778
v 1.867048 0.029941 -0.566708
v 1.700033 0.029941 -0.733722
v -2.109223 0.196271 0.577387
v -2.119902 0.029941 0.733380
v -1.700033 0.029941 0.733380
v -1.710713 0.196271 0.577387
v 1.923118 0.903224 0.622778
v 1.756103 0.903224 0.764399
v 1.700033 0.029941 0.733722
v 1.867047 0.029941 0.566708
vn -1.0000 -0.0000 -0.0000
vn -0.0000 -1.0000 -0.0000
vn -0.0000 -0.0000 1.0000
vn -0.0000 1.0000 -0.0000
vn -0.0695 -0.0000 -0.9976
vn -0.2751 0.6798 -0.6798
vn -0.6798 0.2751 -0.6798
vn -0.6798 0.6798 -0.2751
vn -0.6798 0.6798 0.2751
vn -0.6798 0.2751 0.6798
vn -0.2751 0.6798 0.6798
vn -0.9239 -0.0000 0.3827
vn -0.3827 -0.0000 0.9239
vn -0.3827 -0.0000 -0.9239
vn -0.9239 -0.0000 -0.3827
vn -0.0000 -0.0000 -1.0000
vn 1.0000 -0.0000 -0.0000
vn 0.2751 0.6798 -0.6798
vn 0.6798 0.2751 -0.6798
vn 0.6798 0.6798 -0.2751
vn 0.6798 0.6798 0.2751
vn 0.6798 0.2751 0.6798
vn 0.2751 0.6798 0.6798
vn 0.9239 -0.0000 0.3827
vn 0.3827 -0.0000 0.9239
vn 0.3827 -0.0000 -0.9239
vn 0.9239 -0.0000 -0.3827
vn -0.6913 0.6586 0.2974
vn -0.6865 0.2484 0.6834
vn -0.3266 0.6320 0.7027
vn -0.0992 -0.0000 0.9951
vn -0.6908 -0.6703 -0.2713
vn -0.7049 -0.2661 -0.6575
vn -0.3186 -0.6703 -0.6703
vn -0.0000 0.0641 0.9979
vn -0.0000 0.0641 -0.9979
vn -0.9979 0.0641 -0.0000
vn -0.1426 -0.9882 0.0566
vn -0.0000 -0.9417 -0.3363
vn 0.9979 0.0641 -0.0000
vn -0.0272 -0.9841 -0.1757
vn -0.2773 -0.9608 -0.0000
vn -0.0000 -0.9624 0.2716
vn -0.0216 -0.9900 0.1397
vn -0.2580 0.0784 -0.9630
vn -0.7042 0.0904 -0.7042
vn -0.9630 0.0784 -0.2580
vn 0.9630 0.0784 -0.2580
vn 0.7042 0.0904 -0.7042
vn 0.2580 0.0784 -0.9630
vn 0.9630 0.0784 0.2580
vn 0.7042 0.0904 0.7042
vn 0.2580 0.0784 0.9630
vn -0.2580 0.0784 0.9630
vn -0.7042 0.0904 0.7042
vn -0.9630 0.0784 0.2580
vn -0.7321 0.0798 -0.6765
vn -0.0000 -0.6841 -0.7294
vn -0.6765 0.0798 -0.7321
vt 0.625000 0.557454
vt 0.625000 0.627707
vt 0.589181 0.714181
vt 0.502707 0.750000
vt 0.375000 0.750000
vt 0.375000 0.557454
vt 0.250000 0.750000
vt 0.250000 0.500000
vt 0.375000 0.500000
vt 0.375000 0.692546
vt 0.373748 0.733172
vt 0.370726 0.750000
vt 0.375000 0.375000
vt 0.625000 0.375000
vt 0.625000 0.496057
vt 0.375000 0.496057
vt 0.750000 0.750000
vt 0.750000 0.500000
vt 0.865903 0.500000
vt 0.872335 0.535819
vt 0.875000 0.622293
vt 0.875000 0.692546
vt 0.873748 0.733172
vt 0.870726 0.750000
vt 0.375000 0.875000
vt 0.625000 0.875000
vt 0.625000 0.995726
vt 0.375000 0.995726
vt 0.875000 0.658079
vt 0.875000 0.750000
vt 0.875000 0.500000
vt 0.875000 0.500056
vt 0.872901 0.566132
vt 0.867809 0.599525
vt 0.845775 0.629920
vt 0.461657 0.577480
vt 0.423076 0.611910
vt 0.407096 0.695029
vt 0.407096 0.922520
vt 0.666667 0.922520
vt 0.666667 0.577480
vt 0.375000 0.875000
vt 0.625000 1.000000
vt 0.375000 1.000000
vt 0.502707 0.500000
vt 0.589181 0.535819
vt 0.625000 0.622293
vt 0.625000 0.692546
vt 0.375000 0.692546
vt 0.589181 0.497335
vt 0.625000 0.490903
vt 0.589181 0.535819
vt 0.625000 0.750000
vt 0.250000 0.750000
vt 0.589181 0.497330
vt 0.625000 0.490883
vt 0.625000 0.758392
vt 0.589181 0.752458
vt 0.618139 0.743610
vt 0.625000 0.752458
vt 0.627458 0.714181
vt 0.625000 0.259097
vt 0.589181 0.252665
vt 0.701473 0.340704
vt 0.625000 0.252665
vt 0.502707 0.250000
vt 0.589181 0.214181
vt 0.875000 0.535819
vt 0.618650 0.506861
vt 0.627665 0.535819
vt 0.634097 0.500000
vt 0.627665 0.500000
vt 0.618651 0.506861
vt 0.627670 0.535819
vt 0.634117 0.500000
vt 0.627670 0.500000
vt 0.625000 0.057454
vt 0.625000 0.127707
vt 0.375000 0.250000
vt 0.375000 0.057454
vt 0.625000 0.500000
vt 0.375000 0.000000
vt 0.625000 0.000000
vt 0.625000 0.754274
vt 0.375000 0.754274
vt 0.371057 0.500000
vt 0.373845 0.516828
vt 0.375000 0.557454
vt 0.629274 0.750000
vt 0.626252 0.733172
vt 0.633392 0.750000
vt 0.626155 0.516828
vt 0.628943 0.500000
vt 0.625000 0.250000
vt 0.625000 0.091921
vt 0.460171 0.091921
vt 0.399946 0.066975
vt 0.375000 0.006751
vt 0.250000 0.750000
vt 0.129274 0.750000
vt 0.126252 0.733172
vt 0.125000 0.692546
vt 0.125000 0.500000
vt 0.125000 0.750000
vt 0.375000 0.160395
vt 0.525041 0.160395
vt 0.595853 0.186798
vt 0.625000 0.249944
vt 0.809822 0.554741
vt 0.625000 0.183868
vt 0.930570 0.784560
vt 0.911550 0.882112
vt 0.932272 0.882292
vt 0.872894 0.592511
vt 0.865631 0.922520
vt 0.930570 0.784560
vt 0.930570 0.577480
vt 0.302686 0.444333
vt 0.375000 0.068709
vt 0.405985 0.611909
vt 0.131143 0.652160
vt 0.126799 0.681291
vt 0.126799 0.656345
vt 0.125000 0.743249
vt 0.154225 0.629920
vt 0.125000 0.589605
vt 0.875000 0.651095
vt 0.861749 0.700548
vt 0.825548 0.736749
vt 0.776096 0.750000
vt 0.670881 0.750000
vt 0.625000 0.704119
vt 0.375000 0.812600
vt 0.625000 0.795881
vt 0.625000 0.901096
vt 0.375000 0.865053
vt 0.375000 0.134947
vt 0.625000 0.098905
vt 0.724444 0.500000
vt 0.625000 0.599444
vt 0.625000 0.650555
vt 0.724444 0.750000
vt 0.776096 0.750000
vt 0.825548 0.736749
vt 0.861749 0.700548
vt 0.875000 0.651095
vt 0.125000 0.615053
vt 0.143079 0.682527
vt 0.192473 0.731920
vt 0.259947 0.750000
vt 0.375000 0.614316
vt 0.375000 0.635683
vt 0.239317 0.500000
vt 0.625000 0.599241
vt 0.625000 0.651095
vt 0.638251 0.700548
vt 0.674452 0.736749
vt 0.723904 0.750000
vt 0.875000 0.599241
vt 0.625000 0.901096
vt 0.625000 0.849444
vt 0.375000 0.364317
vt 0.625000 0.400556
vt 0.375000 0.134947
vt 0.625000 0.098905
vt 0.240053 0.750000
vt 0.307527 0.731920
vt 0.356921 0.682527
vt 0.375000 0.615053
vt 0.577384 0.500000
vt 0.577384 0.250000
vt 0.375000 0.615053
vt 0.577384 0.500000
vt 0.375000 0.884947
vt 0.625000 0.848904
vt 0.577384 0.250000
vt 0.625000 0.150759
vt 0.724444 0.500000
vt 0.723904 0.750000
vt 0.674452 0.736749
vt 0.638251 0.700548
vt 0.239317 0.500000
vt 0.307527 0.731920
vt 0.624593 0.950556
vt 0.374593 0.932532
vt 0.623080 1.000000
vt 0.374593 0.067468
vt 0.624593 0.049444
vt 0.624593 0.049444
vt 0.623080 0.000000
vt 0.374593 0.682532
vt 0.624593 0.700556
vt 0.374593 0.817468
vt 0.624593 0.799444
vt 0.624593 0.799444
vt 0.374593 0.682532
vt 0.624593 0.700556
vt 0.625000 0.704119
vt 0.375000 0.687400
vt 0.312400 0.750000
vt 0.143079 0.682527
vt 0.625000 0.650556
vt 0.868641 0.500000
vt 0.631359 0.500000
s 1
usemtl bois_.021
f 42/1/1 13/2/1 16/3/1 12/4/1 1/5/1 40/6/1
f 71/13/3 72/14/3 43/15/3 39/16/3
f 74/17/4 68/18/4 18/19/4 24/20/4 20/21/4 48/22/4 50/23/4 49/24/4
f 73/25/3 74/26/3 49/27/3 45/28/3
f 33/45/1 35/52/1 32/47/1 9/53/1 8/5/1 10/9/1
f 64/8/2 10/9/2 8/5/2 65/54/2
f 37/55/3 33/45/3 10/9/3 64/13/3 70/14/3 34/56/3
f 11/57/6 14/58/6 15/59/6 17/60/6
f 12/4/7 16/3/7 15/59/7 14/58/7
f 13/2/8 17/61/8 15/59/8 16/3/8
f 18/62/6 21/63/6 22/64/6 24/65/6
f 19/66/7 23/67/7 22/64/7 21/63/7
f 20/21/8 24/20/8 22/64/8 23/68/8
f 32/47/9 35/52/9 36/73/9 38/74/9
f 33/45/10 37/55/10 36/73/10 35/52/10
f 34/75/11 38/74/11 36/73/11 37/76/11
f 48/77/1 20/78/1 23/67/1 19/66/1 2/79/1 46/80/1
f 42/1/12 40/6/12 41/9/12 44/81/12
f 44/81/13 41/9/13 39/16/13 43/15/13
f 45/28/13 49/27/13 50/43/13 47/44/13
f 47/82/12 50/83/12 48/77/12 46/80/12
f 57/54/2 71/8/2 39/86/2 41/87/2 40/88/2 1/5/2
f 72/18/4 67/17/4 11/91/4 17/61/4 13/2/4 42/1/4 44/92/4 43/93/4
f 70/18/4 66/17/4 9/53/4 32/47/4 38/74/4 34/75/4
f 8/5/16 9/53/16 66/26/16 65/42/16
f 19/66/16 21/63/16 18/62/16 68/14/16 58/13/16 2/79/16
f 58/8/2 73/99/2 45/100/2 47/101/2 46/102/2 2/103/2
f 12/4/16 14/58/16 11/57/16 67/26/16 57/42/16 1/5/16
f 118/1/17 116/6/17 77/5/17 88/4/17 92/3/17 89/2/17
f 71/13/3 115/16/3 119/15/3 72/14/3
f 126/23/4 124/22/4 96/21/4 100/20/4 94/19/4 68/18/4 74/17/4 125/24/4
f 73/25/3 121/28/3 125/27/3 74/26/3
f 109/45/17 86/9/17 84/5/17 85/53/17 108/47/17 111/52/17
f 64/8/2 65/54/2 84/5/2 86/9/2
f 113/55/3 110/56/3 70/14/3 64/13/3 86/9/3 109/45/3
f 87/57/18 93/60/18 91/59/18 90/58/18
f 88/4/19 90/58/19 91/59/19 92/3/19
f 89/2/20 92/3/20 91/59/20 93/61/20
f 94/62/18 100/65/18 98/64/18 97/63/18
f 95/66/19 97/63/19 98/64/19 99/67/19
f 96/21/20 99/68/20 98/64/20 100/20/20
f 108/47/21 114/74/21 112/73/21 111/52/21
f 109/45/22 111/52/22 112/73/22 113/55/22
f 110/75/23 113/76/23 112/73/23 114/74/23
f 124/77/17 122/80/17 78/79/17 95/66/17 99/67/17 96/78/17
f 118/1/24 120/81/24 117/9/24 116/6/24
f 120/81/25 119/15/25 115/16/25 117/9/25
f 121/28/25 123/44/25 126/43/25 125/27/25
f 123/82/24 122/80/24 124/77/24 126/83/24
f 116/88/2 117/87/2 115/86/2 71/8/2 57/54/2 77/5/2
f 120/92/4 118/1/4 89/2/4 93/61/4 87/91/4 67/17/4 72/18/4 119/93/4
f 114/74/4 108/47/4 85/53/4 66/17/4 70/18/4 110/75/4
f 84/5/16 65/42/16 66/26/16 85/53/16
f 95/66/16 78/79/16 58/13/16 68/14/16 94/62/16 97/63/16
f 122/102/2 123/101/2 121/100/2 73/99/2 58/8/2 78/103/2
f 88/4/16 77/5/16 57/42/16 67/26/16 87/57/16 90/58/16
f 154/81/2 152/31/2 217/127/2 219/128/2 220/129/2 218/130/2 247/131/2 248/132/2
f 151/79/35 152/94/35 154/81/35 153/9/35
f 246/133/36 247/134/36 218/135/36 213/136/36
f 214/137/37 217/138/37 152/94/37 151/79/37
f 255/139/2 256/140/2 251/141/2 252/142/2 225/143/2 227/144/2 228/145/2 226/146/2 172/31/2
f 155/82/1 156/83/1 158/94/1 157/79/1
f 157/79/16 158/94/16 162/81/16 161/9/16
f 161/9/17 162/81/17 160/53/17 159/5/17
f 159/5/3 160/53/3 156/43/3 155/44/3
f 157/103/38 161/9/38 159/5/38 155/104/38
f 162/81/4 158/31/4 156/30/4 160/53/4
f 171/103/4 221/147/4 223/148/4 224/149/4 222/150/4 249/150/4 250/151/4 253/152/4 254/153/4
f 249/136/36 222/136/36 225/160/36 252/161/36
f 171/79/35 254/162/35 255/163/35 172/94/35
f 221/164/40 171/79/40 172/94/40 226/165/40
f 173/82/17 175/79/17 176/94/17 174/83/17
f 175/79/16 179/9/16 180/81/16 176/94/16
f 179/9/1 177/5/1 178/53/1 180/81/1
f 177/5/3 173/44/3 174/43/3 178/53/3
f 175/103/2 173/104/2 177/5/2 179/9/2
f 180/81/4 178/53/4 174/30/4 176/31/4
f 203/79/36 204/94/36 264/163/36 261/162/36
f 263/140/2 264/178/2 204/31/2 202/30/2 241/179/2 243/180/2 244/181/2 242/155/2
f 155/82/1 189/79/1 190/94/1 156/83/1
f 189/79/3 191/9/3 192/81/3 190/94/3
f 191/9/17 159/5/17 160/53/17 192/81/17
f 189/103/42 155/104/42 159/5/42 191/9/42
f 192/81/4 160/53/4 156/30/4 190/31/4
f 193/82/16 195/79/16 196/94/16 194/83/16
f 195/79/1 199/9/1 200/81/1 196/94/1
f 199/9/3 197/5/3 198/53/3 200/81/3
f 197/5/17 193/44/17 194/43/17 198/53/17
f 195/103/43 193/104/43 197/5/43 199/9/43
f 200/81/4 198/53/4 194/30/4 196/31/4
f 201/82/40 202/83/40 204/94/40 203/79/40
f 262/169/37 263/140/37 242/155/37 237/169/37
f 238/174/35 241/175/35 202/43/35 201/44/35
f 203/103/4 261/182/4 262/172/4 237/172/4 239/168/4 240/183/4 238/166/4 201/104/4
f 173/82/17 174/83/17 206/94/17 205/79/17
f 205/79/3 206/94/3 208/81/3 207/9/3
f 207/9/1 208/81/1 178/53/1 177/5/1
f 205/103/2 207/9/2 177/5/2 173/104/2
f 208/81/4 206/31/4 174/30/4 178/53/4
f 193/82/16 194/83/16 210/94/16 209/79/16
f 209/79/17 210/94/17 212/81/17 211/9/17
f 211/9/3 212/81/3 198/53/3 197/5/3
f 209/103/44 211/9/44 197/5/44 193/104/44
f 212/81/4 210/31/4 194/30/4 198/53/4
f 213/136/45 218/135/45 220/184/45 215/185/45
f 215/185/46 220/184/46 219/186/46 216/44/46
f 216/187/47 219/188/47 217/138/47 214/137/47
f 221/164/48 226/165/48 228/189/48 223/187/48
f 223/187/49 228/189/49 227/190/49 224/82/49
f 224/185/50 227/184/50 225/160/50 222/136/50
f 241/175/54 238/174/54 240/193/54 243/195/54
f 243/195/55 240/193/55 239/196/55 244/197/55
f 244/197/56 239/196/56 237/169/56 242/155/56
f 153/9/40 154/81/40 248/198/40 245/199/40
f 247/134/49 246/133/49 245/199/49 248/198/49
f 151/103/4 153/9/4 245/199/4 246/200/4 213/150/4 215/149/4 216/201/4 214/147/4
f 255/163/55 254/162/55 253/152/55 256/140/55
f 251/202/57 250/151/57 249/136/57 252/161/57
f 263/140/59 262/169/59 261/162/59 264/163/59
f 253/152/37 250/151/37 251/202/37 256/140/37
usemtl bois_de_bois.021
f 75/7/2 63/8/2 7/9/2 51/10/2 53/11/2 52/12/2
f 133/29/4 4/30/4 62/17/4 60/18/4 6/31/4 137/32/4 143/33/4 139/34/4 135/35/4
f 146/36/5 149/37/5 145/38/5 133/39/5 135/40/5 136/41/5
f 61/42/3 62/26/3 4/43/3 3/44/3
f 26/45/1 28/46/1 25/47/1 55/48/1 51/49/1 7/9/1
f 30/50/3 26/45/3 7/9/3 63/13/3 69/14/3 27/51/3
f 25/47/9 28/46/9 29/69/9 31/70/9
f 26/45/10 30/50/10 29/69/10 28/46/10
f 27/71/11 31/70/11 29/69/11 30/72/11
f 54/84/14 52/85/14 53/5/14 56/53/14
f 56/53/15 53/5/15 51/49/15 55/48/15
f 52/85/16 54/84/16 76/26/16 75/42/16
f 55/48/4 25/47/4 31/70/4 27/71/4 69/18/4 76/17/4 54/89/4 56/90/4
f 5/79/16 6/94/16 60/14/16 59/13/16
f 3/82/1 4/83/1 133/95/1 145/96/1 147/97/1 144/98/1
f 129/11/2 127/10/2 83/9/2 63/8/2 75/7/2 128/12/2
f 79/82/17 81/79/17 82/94/17 80/83/17
f 61/42/3 79/44/3 80/43/3 62/26/3
f 60/18/4 62/17/4 80/30/4 82/31/4
f 127/49/17 131/48/17 101/47/17 104/46/17 102/45/17 83/9/17
f 106/50/3 103/51/3 69/14/3 63/13/3 83/9/3 102/45/3
f 101/47/21 107/70/21 105/69/21 104/46/21
f 102/45/22 104/46/22 105/69/22 106/50/22
f 103/71/23 106/72/23 105/69/23 107/70/23
f 130/84/26 132/53/26 129/5/26 128/85/26
f 132/53/27 131/48/27 127/49/27 129/5/27
f 128/85/16 75/42/16 76/26/16 130/84/16
f 131/48/4 132/90/4 130/89/4 76/17/4 69/18/4 103/71/4 107/70/4 101/47/4
f 81/79/16 59/13/16 60/14/16 82/94/16
f 81/103/2 79/104/2 61/54/2 59/8/2
f 6/94/1 5/79/1 134/105/1 138/106/1 140/107/1 137/108/1
f 137/108/28 140/107/28 141/109/28 143/110/28
f 138/111/29 142/112/29 141/109/29 140/113/29
f 139/34/30 143/33/30 141/109/30 142/114/30
f 135/40/31 139/115/31 142/112/31 138/116/31 134/117/31 136/41/31
f 144/98/32 147/97/32 148/118/32 150/119/32
f 145/38/33 149/37/33 148/118/33 147/120/33
f 146/121/34 150/122/34 148/118/34 149/123/34
f 5/103/2 59/8/2 61/54/2 3/104/2 144/124/2 150/122/2 146/121/2 136/125/2 134/126/2
f 163/82/3 164/83/3 166/94/3 165/79/3
f 165/79/1 166/94/1 170/81/1 169/9/1
f 169/9/16 170/81/16 168/53/16 167/5/16
f 167/5/17 168/53/17 164/43/17 163/44/17
f 165/103/39 169/9/39 167/5/39 163/104/39
f 170/81/4 166/31/4 164/30/4 168/53/4
f 259/154/2 233/155/2 235/156/2 236/157/2 234/158/2 186/30/2 258/159/2
f 187/103/4 185/104/4 229/166/4 231/167/4 232/168/4 230/169/4 188/9/4
f 163/82/3 181/79/3 182/94/3 164/83/3
f 181/79/17 183/9/17 184/81/17 182/94/17
f 183/9/16 167/5/16 168/53/16 184/81/16
f 181/103/41 163/104/41 167/5/41 183/9/41
f 184/81/4 168/53/4 164/30/4 182/31/4
f 187/79/36 188/9/36 260/170/36 257/171/36
f 188/9/40 230/172/40 233/155/40 259/154/40 260/173/40
f 229/174/35 185/44/35 186/43/35 234/175/35
f 185/82/37 187/79/37 257/176/37 258/177/37 186/83/37
f 233/155/51 230/172/51 232/191/51 235/192/51
f 235/192/52 232/191/52 231/193/52 236/194/52
f 236/194/53 231/193/53 229/174/53 234/175/53
f 257/203/58 260/204/58 259/154/58 258/159/58
