# Blender 3.6.0
# www.blender.org
mtllib sword.mtl
o Cube
v -0.033235 0.014792 -0.353714
v -0.033235 0.056252 0.161746
v -0.033235 0.046348 -0.356252
v -0.033235 0.087813 0.159267
v 0.033235 0.014792 -0.353714
v 0.033235 0.056252 0.161746
v 0.033235 0.046348 -0.356252
v 0.033235 0.087813 0.159267
v 0.000000 0.059230 -0.432049
v 0.000000 0.106668 0.157723
v 0.000000 -0.000173 -0.427271
v 0.000000 0.047261 0.162449
v -0.044754 0.023731 -0.440006
v -0.044754 0.072345 0.164387
v 0.044754 0.023731 -0.440006
v 0.044754 0.072345 0.164387
v 0.000000 0.015686 -0.540031
v -0.129849 0.070439 0.167478
v -0.096429 0.112784 0.153924
v 0.000000 0.164359 0.149776
v 0.096429 0.112784 0.153924
v 0.129849 0.070439 0.167478
v 0.096429 0.026473 0.160866
v 0.000000 0.001885 0.162844
v -0.096429 0.026473 0.160866
v -0.048276 0.077595 0.222646
v -0.034136 0.096130 0.220304
v -0.000000 0.103802 0.219259
v 0.034136 0.096130 0.220304
v 0.048276 0.077595 0.222646
v 0.034136 0.059100 0.225493
v 0.000000 0.051430 0.226555
v -0.034136 0.059100 0.225493
v -0.038128 0.056398 -0.147433
v -0.037727 0.037662 -0.146364
v -0.044754 0.046993 -0.150802
v -0.044754 0.047553 -0.143842
v -0.044754 0.048655 -0.130143
v -0.044754 0.048347 -0.133971
v -0.034403 0.034452 -0.129297
v -0.035215 0.061602 -0.132666
v 0.044754 0.028325 -0.382898
v 0.044754 0.028009 -0.386819
v 0.039095 0.020327 -0.385348
v 0.039129 0.035899 -0.385132
v -0.129849 0.073226 0.211990
v -0.096429 0.116162 0.205787
v 0.000000 0.167755 0.201852
v 0.096429 0.116162 0.205787
v 0.129849 0.073226 0.211990
v 0.096429 0.030225 0.217375
v 0.000000 0.005861 0.222136
v -0.096429 0.030225 0.217375
v 0.000000 0.066889 0.297336
v 0.000000 0.110150 0.291386
v 0.040311 0.089404 0.305594
v -0.040311 0.089404 0.305594
v -0.028341 0.104767 0.303202
v 0.028341 0.104767 0.303202
v 0.028339 0.074013 0.307359
v -0.028339 0.074013 0.307359
v -0.037701 0.109885 0.302789
v -0.053317 0.089483 0.306226
v 0.037701 0.109885 0.302789
v 0.000000 0.117458 0.290453
v 0.037701 0.068972 0.308317
v 0.053317 0.089483 0.306226
v -0.037701 0.068972 0.308317
v 0.000000 0.059610 0.298414
v -0.033597 0.112182 0.336324
v -0.047513 0.094000 0.339387
v 0.033597 0.112182 0.336324
v 0.000000 0.120759 0.348060
v 0.033597 0.075722 0.341250
v 0.047513 0.094000 0.339387
v -0.033597 0.075722 0.341250
v 0.000000 0.069208 0.355153
v 0.033235 0.049973 0.083680
v 0.033235 0.049361 0.076071
v 0.044754 0.066277 0.088950
v 0.044754 0.064545 0.067410
v 0.026943 0.047984 0.080245
v 0.033235 0.081305 0.078354
v 0.033235 0.080977 0.074278
v 0.030547 0.082655 0.076054
vn 0.4506 -0.8887 -0.0846
vn -0.0409 0.1222 -0.9917
vn 0.0300 -0.2861 -0.9577
vn -0.4506 -0.8887 -0.0846
vn -0.5781 0.7814 -0.2349
vn -0.0304 -0.1360 -0.9902
vn 0.0183 -0.0090 -0.9998
vn 0.5781 0.7814 -0.2349
vn 0.2476 -0.9667 0.0645
vn -0.7920 -0.6093 0.0394
vn -0.7908 0.6108 -0.0391
vn 0.7920 -0.6093 0.0394
vn 0.0409 0.1222 -0.9917
vn -0.0183 -0.0090 -0.9998
vn 0.0304 -0.1360 -0.9902
vn -0.0300 -0.2861 -0.9577
vn 0.7928 0.6094 -0.0093
vn -0.7928 0.6094 -0.0093
vn -0.2476 -0.9667 0.0645
vn 0.4728 0.8793 -0.0573
vn 0.7908 0.6108 -0.0391
vn -0.4728 0.8793 -0.0573
vn -0.2619 -0.9620 0.0774
vn -0.8086 -0.5865 0.0472
vn 0.4947 0.8663 -0.0697
vn 0.8086 0.5865 -0.0472
vn -0.8086 0.5865 -0.0472
vn -0.4947 0.8663 -0.0697
vn 0.8086 -0.5865 0.0472
vn 0.2619 -0.9620 0.0774
vn -0.4962 0.0388 0.8674
vn -0.4118 -0.0607 -0.9093
vn -0.2829 0.1098 0.9529
vn -0.0912 -0.1253 -0.9879
vn 0.3831 0.0120 -0.9236
vn 0.2693 -0.0139 0.9629
vn -0.1415 0.2429 0.9597
vn 0.0957 0.2909 0.9520
vn 0.1356 0.0277 0.9904
vn -0.0707 -0.1079 0.9917
vn -0.0957 0.2909 0.9520
vn 0.0707 -0.1079 0.9917
vn -0.1356 0.0277 0.9904
vn 0.1415 0.2429 0.9597
vn -0.1988 -0.9597 0.1985
vn 0.1988 -0.9597 0.1985
vn 0.7922 -0.5885 0.1616
vn -0.2207 0.9716 -0.0857
vn -0.7922 -0.5885 0.1616
vn 0.2207 0.9716 -0.0857
vn -0.0399 -0.1370 -0.9898
vn 0.2235 -0.9570 0.1847
vn -0.2737 -0.3050 -0.9122
vn 0.0399 -0.1370 -0.9898
vn -0.0400 -0.1306 -0.9906
vn 0.0400 -0.1306 -0.9906
vn 0.2766 0.0516 -0.9596
vn -0.2766 0.0516 -0.9596
vn 0.2737 -0.3050 -0.9122
vn -0.0000 0.1351 0.9908
vn -0.2235 -0.9570 0.1847
vn 0.2210 0.9740 -0.0499
vn -0.7873 -0.5774 0.2164
vn -0.2210 0.9740 -0.0499
vn 0.7873 -0.5774 0.2164
vn -0.7885 0.6127 0.0545
vn 0.7885 0.6127 0.0545
vn 0.5568 0.0461 0.8293
vn 0.5549 -0.1429 -0.8196
vt 0.250000 0.625000
vt 0.375000 0.625000
vt 0.375000 0.750000
vt 0.250000 0.750000
vt 0.625000 0.125000
vt 0.625000 0.000000
vt 0.625000 0.625000
vt 0.625000 0.500000
vt 0.125000 0.625000
vt 0.125000 0.750000
vt 0.125000 0.500000
vt 0.250000 0.500000
vt 0.625000 0.375000
vt 0.625000 1.000000
vt 0.625000 0.875000
vt 0.375000 0.500000
vt 0.625000 0.750000
vt 0.625000 0.250000
vt 0.669867 0.624941
vt 0.674475 0.592508
vt 0.825525 0.592508
vt 0.830069 0.624581
vt 0.375000 0.875000
vt 0.375000 1.000000
vt 0.375000 0.000000
vt 0.503230 0.125000
vt 0.485859 0.012674
vt 0.501646 0.125000
vt 0.497561 0.125000
vt 0.483764 0.048742
vt 0.494681 0.125000
vt 0.375000 0.125000
vt 0.375000 0.375000
vt 0.585761 0.500000
vt 0.585130 0.489890
vt 0.583785 0.500000
vt 0.584889 0.625000
vt 0.398633 0.625000
vt 0.380799 0.563966
vt 0.397010 0.625000
vt 0.484673 0.196901
vt 0.486653 0.228511
vt 0.375000 0.250000
vt 0.380089 0.686403
vt 0.583447 0.750000
vt 0.586368 0.773664
vt 0.587138 0.750000
vt 0.875000 0.500000
vt 0.875000 0.625000
vt 0.749971 0.555098
vt 0.750000 0.500000
vt 0.672768 0.651726
vt 0.750000 0.679795
vt 0.827232 0.651726
vt 0.875000 0.750000
vt 0.750000 0.750000
vt 0.827232 0.651726
vt 0.672768 0.651726
vt 0.750000 0.679795
vt 0.593798 0.625000
s 0
usemtl Metall
f 17/1/1 15/2/1 5/3/1 11/4/1
f 13/9/4 17/1/4 11/4/4 1/10/4
f 3/11/5 9/12/5 17/1/5 13/9/5
f 9/12/8 7/16/8 15/2/8 17/1/8
f 11/23/23 12/15/23 2/14/23 1/24/23
f 1/25/24 2/6/24 14/5/24 38/26/24 40/27/24 39/28/24 37/29/24 35/30/24 36/31/24 13/32/24
f 9/33/25 10/13/25 8/8/25 83/34/25 85/35/25 84/36/25 7/16/25
f 7/16/26 84/36/26 81/37/26 42/38/26 45/39/26 43/40/26 15/2/26
f 13/32/27 36/31/27 34/41/27 37/29/27 39/28/27 41/42/27 38/26/27 14/5/27 4/18/27 3/43/27
f 3/43/28 4/18/28 10/13/28 9/33/28
f 15/2/29 43/40/29 44/44/29 42/38/29 81/37/29 79/45/29 5/3/29
f 5/3/30 79/45/30 82/46/30 78/47/30 6/17/30 12/15/30 11/23/30
f 36/31/31 35/30/31 34/41/31
f 37/29/32 34/41/32 35/30/32
f 40/27/33 41/42/33 39/28/33
f 41/42/34 40/27/34 38/26/34
f 44/44/35 45/39/35 42/38/35
f 45/39/36 44/44/36 43/40/36
f 57/22/51 61/54/51 68/54/51 63/22/51
f 69/59/52 66/58/52 74/58/52 77/59/52
f 55/50/53 58/21/53 62/21/53 65/50/53
f 60/52/54 56/19/54 67/19/54 66/52/54
f 58/21/55 57/22/55 63/22/55 62/21/55
f 56/19/56 59/20/56 64/20/56 67/19/56
f 54/59/57 60/58/57 66/58/57 69/59/57
f 61/57/58 54/53/58 69/53/58 68/57/58
f 59/20/59 55/50/59 65/50/59 64/20/59
f 70/21/60 71/22/60 76/57/60 77/59/60 74/52/60 75/19/60 72/20/60 73/50/60
f 68/57/61 69/53/61 77/53/61 76/57/61
f 64/20/62 65/50/62 73/50/62 72/20/62
f 63/22/63 68/54/63 76/54/63 71/22/63
f 65/50/64 62/21/64 70/21/64 73/50/64
f 66/52/65 67/19/65 75/19/65 74/52/65
f 62/21/66 63/22/66 71/22/66 70/21/66
f 67/19/67 64/20/67 72/20/67 75/19/67
f 78/47/29 80/60/29 16/7/29 6/17/29
f 81/37/68 84/36/68 85/35/68 82/46/68 79/45/68
f 80/60/26 83/34/26 8/8/26 16/7/26
f 80/60/69 78/47/69 82/46/69 85/35/69 83/34/69
usemtl D_metall
f 14/5/2 2/6/2 25/6/2 18/5/2
f 16/7/3 8/8/3 21/8/3 22/7/3
f 8/8/6 10/13/6 20/13/6 21/8/6
f 2/14/7 12/15/7 24/15/7 25/14/7
f 24/15/9 23/17/9 51/17/9 52/15/9
f 18/5/10 25/6/10 53/6/10 46/5/10
f 19/18/11 18/5/11 46/5/11 47/18/11
f 23/17/12 22/7/12 50/7/12 51/17/12
f 6/17/13 16/7/13 22/7/13 23/17/13
f 12/15/14 6/17/14 23/17/14 24/15/14
f 10/13/15 4/18/15 19/18/15 20/13/15
f 4/18/16 14/5/16 18/5/16 19/18/16
f 25/14/19 24/15/19 52/15/19 53/14/19
f 21/8/20 20/13/20 48/13/20 49/8/20
f 22/7/21 21/8/21 49/8/21 50/7/21
f 20/13/22 19/18/22 47/18/22 48/13/22
f 26/22/37 27/21/37 47/48/37 46/49/37
f 28/50/38 29/20/38 49/8/38 48/51/38
f 30/19/39 31/52/39 51/17/39 50/7/39
f 32/53/40 33/54/40 53/55/40 52/56/40
f 27/21/41 28/50/41 48/51/41 47/48/41
f 31/52/42 32/53/42 52/56/42 51/17/42
f 33/54/43 26/22/43 46/49/43 53/55/43
f 29/20/44 30/19/44 50/7/44 49/8/44
usemtl Fass
f 30/19/17 29/20/17 59/20/17 56/19/17
f 27/21/18 26/22/18 57/22/18 58/21/18
f 33/54/45 32/53/45 54/53/45 61/57/45
f 32/53/46 31/52/46 60/58/46 54/59/46
f 31/52/47 30/19/47 56/19/47 60/52/47
f 28/50/48 27/21/48 58/21/48 55/50/48
f 26/22/49 33/54/49 61/54/49 57/22/49
f 29/20/50 28/50/50 55/50/50 59/20/50
