# Blender 3.6.0
# www.blender.org
mtllib vase.mtl
o Cylinder
v 0.000000 0.494195 -0.435382
v 0.000000 1.364959 -0.435382
v 0.307862 0.494195 -0.307862
v 0.307862 1.364959 -0.307862
v 0.435382 0.494195 0.000000
v 0.435382 1.364959 0.000000
v 0.307862 0.494195 0.307862
v 0.307862 1.364959 0.307862
v 0.000000 0.494195 0.435382
v 0.000000 1.364959 0.435382
v -0.307862 0.494195 0.307862
v -0.307862 1.364959 0.307862
v -0.435382 0.494195 0.000000
v -0.435382 1.364959 0.000000
v -0.307862 0.494195 -0.307862
v -0.307862 1.364959 -0.307862
v -0.000000 0.929577 -0.598942
v 0.423516 0.929577 -0.423516
v 0.598942 0.929577 0.000000
v 0.423516 0.929577 0.423516
v -0.000000 0.929577 0.598942
v -0.423516 0.929577 0.423516
v -0.598942 0.929577 0.000000
v -0.423516 0.929577 -0.423516
v -0.000000 1.560559 -0.195857
v 0.138492 1.560559 -0.138492
v 0.195857 1.560559 0.000000
v 0.138492 1.560559 0.138492
v -0.000000 1.560559 0.195857
v -0.138492 1.560559 0.138492
v -0.195857 1.560559 0.000000
v -0.138492 1.560559 -0.138492
v 0.000000 1.704057 -0.273471
v 0.193373 1.704057 -0.193373
v 0.273471 1.704057 0.000000
v 0.193373 1.704057 0.193373
v 0.000000 1.704057 0.273471
v -0.193373 1.704057 0.193373
v -0.273471 1.704057 0.000000
v -0.193373 1.704057 -0.193373
v -0.000000 0.000391 -0.225282
v 0.159298 0.000391 -0.159298
v 0.225282 0.000391 0.000000
v 0.159298 0.000391 0.159298
v -0.000000 0.000391 0.225282
v -0.159298 0.000391 0.159298
v -0.225282 0.000391 0.000000
v -0.159298 0.000391 -0.159298
vn 0.3615 0.3279 -0.8728
vn 0.8728 0.3279 -0.3615
vn 0.8728 0.3279 0.3615
vn 0.3615 0.3279 0.8728
vn -0.3615 0.3279 0.8728
vn -0.8728 0.3279 0.3615
vn 0.2534 0.7493 0.6119
vn -0.8728 0.3279 -0.3615
vn -0.3615 0.3279 -0.8728
vn -0.8598 -0.3658 0.3562
vn -0.3615 -0.3279 -0.8728
vn -0.8728 -0.3279 -0.3615
vn -0.8728 -0.3279 0.3615
vn -0.3615 -0.3279 0.8728
vn 0.3615 -0.3279 0.8728
vn 0.8728 -0.3279 0.3615
vn 0.8728 -0.3279 -0.3615
vn 0.3615 -0.3279 -0.8728
vn -0.8264 -0.4470 -0.3423
vn -0.6119 0.7493 -0.2534
vn 0.6119 0.7493 -0.2534
vn -0.2534 0.7493 0.6119
vn -0.2534 0.7493 -0.6119
vn 0.2534 0.7493 -0.6119
vn 0.6119 0.7493 0.2534
vn -0.6119 0.7493 0.2534
vn -0.0000 1.0000 -0.0000
vn -0.3423 -0.4470 0.8264
vn 0.8264 -0.4470 0.3423
vn 0.3423 -0.4470 -0.8264
vn -0.3423 -0.4470 -0.8264
vn -0.8264 -0.4470 0.3423
vn 0.3423 -0.4470 0.8264
vn 0.8264 -0.4470 -0.3423
vn -0.0000 -1.0000 -0.0000
vn 0.3562 -0.3658 0.8598
vn -0.8598 -0.3658 -0.3562
vn 0.8598 -0.3658 -0.3562
vn -0.3562 -0.3658 0.8598
vn -0.3562 -0.3658 -0.8598
vn 0.3562 -0.3658 -0.8598
vn 0.8598 -0.3658 0.3562
vt 1.023479 0.750000
vt 1.000000 1.000000
vt 0.875000 1.000000
vt 0.875000 0.750000
vt 0.750000 1.000000
vt 0.750000 0.750000
vt 0.625000 1.000000
vt 0.625000 0.750000
vt 0.500000 1.000000
vt 0.500000 0.750000
vt 0.375000 1.000000
vt 0.375000 0.750000
vt 0.250000 1.000000
vt 0.250000 0.750000
vt 0.125000 1.000000
vt 0.125000 0.750000
vt 0.000000 1.000000
vt -0.023479 0.750000
vt 0.375000 0.500000
vt 0.250000 0.500000
vt 0.125000 0.500000
vt 0.000000 0.500000
vt 0.500000 0.500000
vt 0.625000 0.500000
vt 0.750000 0.500000
vt 0.875000 0.500000
vt 1.000000 0.500000
vt 0.419706 0.419706
vt 0.250000 0.490000
vt 0.080294 0.419706
vt 0.010000 0.250000
vt 0.080294 0.080294
vt 0.250000 0.010000
vt 0.419706 0.080294
vt 0.490000 0.250000
vt 0.750000 0.490000
vt 0.919706 0.419706
vt 0.990000 0.250000
vt 0.919706 0.080294
vt 0.750000 0.010000
vt 0.580294 0.080294
vt 0.510000 0.250000
vt 0.580294 0.419706
s 0
usemtl Material.006
f 17/1/1 2/2/1 4/3/1 18/4/1
f 18/4/2 4/3/2 6/5/2 19/6/2
f 19/6/3 6/5/3 8/7/3 20/8/3
f 20/8/4 8/7/4 10/9/4 21/10/4
f 21/10/5 10/9/5 12/11/5 22/12/5
f 22/12/6 12/11/6 14/13/6 23/14/6
f 10/9/7 8/7/7 28/7/7 29/9/7
f 23/14/8 14/13/8 16/15/8 24/16/8
f 24/16/9 16/15/9 2/17/9 17/18/9
f 11/19/10 13/20/10 47/20/10 46/19/10
f 15/21/11 24/16/11 17/18/11 1/22/11
f 13/20/12 23/14/12 24/16/12 15/21/12
f 11/19/13 22/12/13 23/14/13 13/20/13
f 9/23/14 21/10/14 22/12/14 11/19/14
f 7/24/15 20/8/15 21/10/15 9/23/15
f 5/25/16 19/6/16 20/8/16 7/24/16
f 3/26/17 18/4/17 19/6/17 5/25/17
f 1/27/18 17/1/18 18/4/18 3/26/18
f 32/15/19 31/13/19 39/13/19 40/15/19
f 16/15/20 14/13/20 31/13/20 32/15/20
f 6/5/21 4/3/21 26/3/21 27/5/21
f 12/11/22 10/9/22 29/9/22 30/11/22
f 2/17/23 16/15/23 32/15/23 25/17/23
f 4/3/24 2/2/24 25/2/24 26/3/24
f 8/7/25 6/5/25 27/5/25 28/7/25
f 14/13/26 12/11/26 30/11/26 31/13/26
f 34/28/27 33/29/27 40/30/27 39/31/27 38/32/27 37/33/27 36/34/27 35/35/27
f 30/11/28 29/9/28 37/9/28 38/11/28
f 28/7/29 27/5/29 35/5/29 36/7/29
f 26/3/30 25/2/30 33/2/30 34/3/30
f 25/17/31 32/15/31 40/15/31 33/17/31
f 31/13/32 30/11/32 38/11/32 39/13/32
f 29/9/33 28/7/33 36/7/33 37/9/33
f 27/5/34 26/3/34 34/3/34 35/5/34
f 41/36/35 42/37/35 43/38/35 44/39/35 45/40/35 46/41/35 47/42/35 48/43/35
f 7/24/36 9/23/36 45/23/36 44/24/36
f 13/20/37 15/21/37 48/21/37 47/20/37
f 3/26/38 5/25/38 43/25/38 42/26/38
f 9/23/39 11/19/39 46/19/39 45/23/39
f 15/21/40 1/22/40 41/22/40 48/21/40
f 1/27/41 3/26/41 42/26/41 41/27/41
f 5/25/42 7/24/42 44/24/42 43/25/42
