# Blender 3.6.0
# www.blender.org
mtllib box1.mtl
o woodbox.004
v -10.820663 0.943036 -0.282248
v -10.820663 0.099961 0.560827
v -10.820663 0.825893 0.560827
v -10.820663 0.825893 -0.165105
v -10.820663 0.099961 -0.165105
v -10.703520 0.099961 -0.282248
v -10.703520 0.825893 -0.282248
v -9.977589 0.825893 -0.282248
v -9.977589 0.099961 -0.282248
v -9.860445 0.099961 -0.165105
v -9.860445 0.825893 -0.165105
v -9.860445 0.825893 0.560827
v -9.860445 0.099961 0.560827
v -9.977589 0.099961 0.677970
v -9.977589 0.825893 0.677970
v -10.703520 0.825893 0.677970
v -10.703520 0.099961 0.677970
v -10.703520 -0.017182 -0.165105
v -9.977589 -0.017182 -0.165105
v -9.977589 -0.017182 0.560827
v -10.703520 -0.017182 0.560827
v -9.977589 0.943036 -0.165105
v -10.703520 0.943036 -0.165105
v -10.703520 0.943036 0.560827
v -9.977589 0.943036 0.560827
v -10.763907 0.099961 0.560827
v -10.763907 0.825893 0.560827
v -10.763907 0.099961 -0.165105
v -10.763907 0.825893 -0.165105
v -10.703520 0.825893 -0.225492
v -10.703520 0.099961 -0.225492
v -9.977589 0.099961 -0.225492
v -9.977589 0.825893 -0.225492
v -9.917201 0.825893 -0.165105
v -9.917201 0.099961 -0.165105
v -9.917201 0.099961 0.560827
v -9.917201 0.825893 0.560827
v -9.977589 0.825893 0.621214
v -9.977589 0.099961 0.621214
v -10.703520 0.099961 0.621214
v -10.703520 0.825893 0.621214
v -9.977589 0.039574 -0.165105
v -10.703520 0.039574 -0.165105
v -10.703520 0.039574 0.560827
v -9.977589 0.039574 0.560827
v -10.703520 0.886280 -0.165105
v -9.977589 0.886280 -0.165105
v -9.977589 0.886280 0.560827
v -10.703520 0.886280 0.560827
v -9.921062 0.099961 -0.027365
v -9.921062 0.099961 -0.012472
v -9.921062 0.825893 -0.012472
v -9.921062 0.825893 -0.027365
v -9.921062 0.099961 0.117821
v -9.921062 0.099961 0.132714
v -9.921062 0.825893 0.132714
v -9.921062 0.825893 0.117821
v -9.921062 0.099961 0.263008
v -9.921062 0.099961 0.277901
v -9.921062 0.825893 0.277901
v -9.921062 0.825893 0.263007
v -9.921062 0.099961 0.408194
v -9.921062 0.099961 0.423087
v -9.921062 0.825893 0.423087
v -9.921062 0.825893 0.408194
v -10.760047 0.099961 0.423087
v -10.760047 0.099961 0.408194
v -10.760047 0.825893 0.408194
v -10.760047 0.825893 0.423087
v -10.760047 0.099961 0.277901
v -10.760047 0.099961 0.263008
v -10.760047 0.825893 0.263007
v -10.760047 0.825893 0.277901
v -10.760047 0.099961 0.132714
v -10.760047 0.099961 0.117821
v -10.760047 0.825893 0.117821
v -10.760047 0.825893 0.132714
v -10.760047 0.099961 -0.012472
v -10.760047 0.099961 -0.027365
v -10.760047 0.825893 -0.027365
v -10.760047 0.825893 -0.012472
v -9.917201 0.825893 0.423087
v -9.917201 0.825893 0.408194
v -9.917201 0.825893 0.277901
v -9.917201 0.825893 0.263007
v -9.917201 0.825893 0.132714
v -9.917201 0.825893 0.117821
v -9.917201 0.825893 -0.012472
v -9.917201 0.825893 -0.027365
v -9.917201 0.099961 -0.027365
v -9.917201 0.099961 -0.012472
v -9.917201 0.099961 0.117821
v -9.917201 0.099961 0.132714
v -9.917201 0.099961 0.263008
v -9.917201 0.099961 0.277901
v -9.917201 0.099961 0.408194
v -9.917201 0.099961 0.423087
v -10.763907 0.825893 -0.027365
v -10.763907 0.825893 -0.012472
v -10.763907 0.825893 0.117821
v -10.763907 0.825893 0.132714
v -10.763907 0.825893 0.263007
v -10.763907 0.825893 0.277901
v -10.763907 0.825893 0.408194
v -10.763907 0.825893 0.423087
v -10.763907 0.099961 0.423087
v -10.763907 0.099961 0.408194
v -10.763907 0.099961 0.277901
v -10.763907 0.099961 0.263008
v -10.763907 0.099961 0.132714
v -10.763907 0.099961 0.117821
v -10.763907 0.099961 -0.012472
v -10.763907 0.099961 -0.027365
v -10.130221 0.099961 -0.225492
v -10.115328 0.099961 -0.225492
v -10.275408 0.099961 -0.225492
v -10.260514 0.099961 -0.225492
v -10.420594 0.099961 -0.225492
v -10.405701 0.099961 -0.225492
v -10.565781 0.099961 -0.225492
v -10.550887 0.099961 -0.225492
v -10.550887 0.825893 -0.225492
v -10.565781 0.825893 -0.225492
v -10.405701 0.825893 -0.225492
v -10.420594 0.825893 -0.225492
v -10.260514 0.825893 -0.225492
v -10.275408 0.825893 -0.225492
v -10.115328 0.825893 -0.225492
v -10.130221 0.825893 -0.225492
v -10.550887 0.099961 0.621214
v -10.565781 0.099961 0.621214
v -10.405701 0.099961 0.621214
v -10.420594 0.099961 0.621214
v -10.260514 0.099961 0.621214
v -10.275408 0.099961 0.621214
v -10.115328 0.099961 0.621214
v -10.130221 0.099961 0.621214
v -10.130221 0.825893 0.621214
v -10.115328 0.825893 0.621214
v -10.275408 0.825893 0.621214
v -10.260514 0.825893 0.621214
v -10.420594 0.825893 0.621214
v -10.405701 0.825893 0.621214
v -10.565781 0.825893 0.621214
v -10.550887 0.825893 0.621214
v -10.115328 0.825893 0.617354
v -10.130221 0.825893 0.617354
v -10.130221 0.099961 0.617354
v -10.115328 0.099961 0.617354
v -10.260514 0.825893 0.617354
v -10.275408 0.825893 0.617354
v -10.275408 0.099961 0.617354
v -10.260514 0.099961 0.617354
v -10.405701 0.825893 0.617354
v -10.420594 0.825893 0.617354
v -10.420594 0.099961 0.617354
v -10.405701 0.099961 0.617354
v -10.550887 0.825893 0.617354
v -10.565781 0.825893 0.617354
v -10.565781 0.099961 0.617354
v -10.550887 0.099961 0.617354
v -10.565781 0.825893 -0.221632
v -10.550887 0.825893 -0.221632
v -10.550887 0.099961 -0.221632
v -10.565781 0.099961 -0.221632
v -10.420594 0.825893 -0.221632
v -10.405701 0.825893 -0.221632
v -10.405701 0.099961 -0.221632
v -10.420594 0.099961 -0.221632
v -10.275408 0.825893 -0.221632
v -10.260514 0.825893 -0.221632
v -10.260514 0.099961 -0.221632
v -10.275408 0.099961 -0.221632
v -10.130221 0.825893 -0.221632
v -10.115328 0.825893 -0.221632
v -10.115328 0.099961 -0.221632
v -10.130221 0.099961 -0.221632
v -10.129021 0.874148 -0.165105
v -10.116529 0.874148 -0.165105
v -10.116529 0.874148 0.560827
v -10.129021 0.874148 0.560827
v -10.274207 0.874148 -0.165105
v -10.261715 0.874148 -0.165105
v -10.261715 0.874148 0.560827
v -10.274207 0.874148 0.560827
v -10.419394 0.874148 -0.165105
v -10.406901 0.874148 -0.165105
v -10.406901 0.874148 0.560827
v -10.419394 0.874148 0.560827
v -10.564580 0.874148 -0.165105
v -10.552088 0.874148 -0.165105
v -10.552088 0.874148 0.560827
v -10.564580 0.874148 0.560827
v -10.564580 0.886280 -0.165105
v -10.552088 0.886280 -0.165105
v -10.419394 0.886280 -0.165105
v -10.406901 0.886280 -0.165105
v -10.274207 0.886280 -0.165105
v -10.261715 0.886280 -0.165105
v -10.129021 0.886280 -0.165105
v -10.116529 0.886280 -0.165105
v -10.116529 0.886280 0.560827
v -10.129021 0.886280 0.560827
v -10.261715 0.886280 0.560827
v -10.274207 0.886280 0.560827
v -10.406901 0.886280 0.560827
v -10.419394 0.886280 0.560827
v -10.552088 0.886280 0.560827
v -10.564580 0.886280 0.560827
v -10.116529 0.039574 -0.165105
v -10.129021 0.039574 -0.165105
v -10.261715 0.039574 -0.165105
v -10.274207 0.039574 -0.165105
v -10.406901 0.039574 -0.165105
v -10.419394 0.039574 -0.165105
v -10.552088 0.039574 -0.165105
v -10.564580 0.039574 -0.165105
v -10.564580 0.039574 0.560827
v -10.552088 0.039574 0.560827
v -10.419394 0.039574 0.560827
v -10.406901 0.039574 0.560827
v -10.274207 0.039574 0.560827
v -10.261715 0.039574 0.560827
v -10.129021 0.039574 0.560827
v -10.116529 0.039574 0.560827
v -10.552088 0.051706 0.560827
v -10.564580 0.051706 0.560827
v -10.564580 0.051706 -0.165105
v -10.552088 0.051706 -0.165105
v -10.406901 0.051706 0.560827
v -10.419394 0.051706 0.560827
v -10.419394 0.051706 -0.165105
v -10.406901 0.051706 -0.165105
v -10.261715 0.051706 0.560827
v -10.274207 0.051706 0.560827
v -10.274207 0.051706 -0.165105
v -10.261715 0.051706 -0.165105
v -10.116529 0.051706 0.560827
v -10.129021 0.051706 0.560827
v -10.129021 0.051706 -0.165105
v -10.116529 0.051706 -0.165105
v -10.820663 0.077881 0.677970
v -10.820663 0.050038 0.610750
v -10.820663 -0.017182 0.582907
v -10.753444 -0.017182 0.610750
v -10.725600 -0.017182 0.677970
v -10.753444 0.050038 0.677970
v -10.753444 0.875816 0.677970
v -10.725600 0.943036 0.677970
v -10.753444 0.943036 0.610750
v -10.820663 0.943036 0.582907
v -10.820663 0.875816 0.610750
v -10.820663 0.847973 0.677970
v -10.753444 0.050038 -0.282248
v -10.725600 -0.017182 -0.282248
v -10.753444 -0.017182 -0.215028
v -10.820663 -0.017182 -0.187185
v -10.820663 0.050038 -0.215028
v -10.820663 0.077881 -0.282248
v -9.927665 0.050038 0.677970
v -9.955508 -0.017182 0.677970
v -9.927665 -0.017182 0.610750
v -9.860445 -0.017182 0.582907
v -9.860445 0.050038 0.610750
v -9.860445 0.077881 0.677970
v -9.860445 0.847973 0.677970
v -9.860445 0.875816 0.610750
v -9.860445 0.943036 0.582907
v -9.927665 0.943036 0.610750
v -9.955508 0.943036 0.677970
v -9.927665 0.875816 0.677970
v -9.860445 0.050038 -0.215028
v -9.860445 -0.017182 -0.187185
v -9.927665 -0.017182 -0.215028
v -9.955508 -0.017182 -0.282248
v -9.927665 0.050038 -0.282248
v -9.860445 0.077881 -0.282248
v -9.860445 0.847973 -0.282248
v -9.927665 0.875816 -0.282248
v -9.955508 0.943036 -0.282248
v -9.927665 0.943036 -0.215028
v -9.860445 0.943036 -0.187185
v -9.860445 0.875816 -0.215028
vn -1.0000 -0.0000 -0.0000
vn -0.0000 -0.0000 1.0000
vn 1.0000 -0.0000 -0.0000
vn -0.0000 -0.0000 -1.0000
vn -0.0000 -1.0000 -0.0000
vn -0.0000 1.0000 -0.0000
vn -0.5774 -0.5774 0.5774
vn -0.5774 0.5774 0.5774
vn -0.5774 -0.5774 -0.5774
vn 0.5774 -0.5774 0.5774
vn 0.5774 0.5774 0.5774
vn 0.5774 -0.5774 -0.5774
vn 0.5774 0.5774 -0.5774
vt 0.405499 0.780499
vt 0.594501 0.780499
vt 0.405499 0.530499
vt 0.594501 0.530499
vt 0.405499 0.280499
vt 0.594501 0.280499
vt 0.392501 0.232499
vt 0.375000 0.225250
vt 0.375000 0.024750
vt 0.392501 0.017501
vt 0.405499 0.030499
vt 0.405499 0.219501
vt 0.392501 0.482499
vt 0.375000 0.475250
vt 0.375000 0.274750
vt 0.392501 0.267501
vt 0.405499 0.469501
vt 0.625000 0.250000
vt 0.399750 0.250000
vt 0.392501 0.232499
vt 0.594501 0.219501
vt 0.625000 0.475250
vt 0.607499 0.482499
vt 0.594501 0.469501
vt 0.607499 0.482499
vt 0.600250 0.500000
vt 0.399750 0.500000
vt 0.392501 0.482499
vt 0.375000 0.725250
vt 0.357499 0.732499
vt 0.344501 0.719501
vt 0.344501 0.530499
vt 0.357499 0.517501
vt 0.375000 0.524750
vt 0.607499 0.732499
vt 0.600250 0.750000
vt 0.399750 0.750000
vt 0.392501 0.732499
vt 0.405499 0.719501
vt 0.594501 0.719501
vt 0.357499 0.732499
vt 0.350250 0.750000
vt 0.149750 0.750000
vt 0.142501 0.732499
vt 0.155499 0.719501
vt 0.405499 0.108039
vt 0.594501 0.108039
vt 0.594501 0.141961
vt 0.405499 0.141961
vt 0.405499 0.358039
vt 0.594501 0.358039
vt 0.594501 0.391961
vt 0.405499 0.391961
vt 0.405499 0.608039
vt 0.594501 0.608039
vt 0.594501 0.641961
vt 0.405499 0.641961
vt 0.405499 0.858038
vt 0.594501 0.858039
vt 0.594501 0.891961
vt 0.405499 0.891961
vt 0.405499 0.683639
vt 0.594501 0.683639
vt 0.405499 0.183639
vt 0.594501 0.183639
vt 0.607499 0.517501
vt 0.625000 0.524750
vt 0.625000 0.725250
vt 0.607499 0.732499
vt 0.594501 0.969501
vt 0.405499 0.969501
vt 0.642501 0.517501
vt 0.655499 0.530499
vt 0.655499 0.719501
vt 0.642501 0.732499
vt 0.607499 0.017501
vt 0.625000 0.024750
vt 0.594501 0.030499
vt 0.267274 0.719501
vt 0.232726 0.719501
vt 0.232726 0.530499
vt 0.267274 0.530499
vt 0.405499 0.179762
vt 0.594501 0.179762
vt 0.191673 0.719501
vt 0.155499 0.530499
vt 0.191673 0.530499
vt 0.392501 0.732499
vt 0.392501 0.517501
vt 0.405499 0.895839
vt 0.594501 0.895839
vt 0.594501 0.929762
vt 0.405499 0.929762
vt 0.392501 0.982499
vt 0.375000 0.975250
vt 0.375000 0.774750
vt 0.392501 0.767501
vt 0.405499 0.816361
vt 0.405499 0.820238
vt 0.405499 0.854161
vt 0.405499 0.891961
vt 0.405499 0.895839
vt 0.405499 0.933639
vt 0.405499 0.070238
vt 0.594501 0.070238
vt 0.594501 0.104161
vt 0.405499 0.104161
vt 0.594501 0.066361
vt 0.405499 0.066361
vt 0.594501 0.933639
vt 0.594501 0.929762
vt 0.594501 0.895839
vt 0.594501 0.891961
vt 0.594501 0.858039
vt 0.594501 0.854161
vt 0.594501 0.820238
vt 0.594501 0.816361
vt 0.594501 0.816361
vt 0.405499 0.816361
vt 0.405499 0.820238
vt 0.594501 0.820238
vt 0.594501 0.854161
vt 0.594501 0.433639
vt 0.594501 0.429762
vt 0.594501 0.395839
vt 0.594501 0.391961
vt 0.594501 0.358039
vt 0.594501 0.354161
vt 0.594501 0.320238
vt 0.594501 0.316361
vt 0.594501 0.316361
vt 0.405499 0.316361
vt 0.405499 0.320238
vt 0.594501 0.320238
vt 0.594501 0.354161
vt 0.405499 0.354161
vt 0.405499 0.433639
vt 0.594501 0.433639
vt 0.405499 0.066361
vt 0.405499 0.070238
vt 0.405499 0.104161
vt 0.405499 0.108039
vt 0.405499 0.145839
vt 0.405499 0.570238
vt 0.594501 0.570238
vt 0.594501 0.604161
vt 0.405499 0.604161
vt 0.594501 0.566361
vt 0.405499 0.566361
vt 0.405499 0.604161
vt 0.405499 0.608039
vt 0.405499 0.645839
vt 0.405499 0.679762
vt 0.405499 0.683639
vt 0.594501 0.179762
vt 0.594501 0.145839
vt 0.594501 0.141961
vt 0.594501 0.108039
vt 0.594501 0.104161
vt 0.594501 0.070238
vt 0.594501 0.066361
vt 0.405499 0.645839
vt 0.594501 0.645839
vt 0.594501 0.679762
vt 0.405499 0.679762
vt 0.844501 0.719501
vt 0.844501 0.530499
vt 0.691673 0.719501
vt 0.694926 0.719501
vt 0.729474 0.719501
vt 0.732726 0.719501
vt 0.767274 0.719501
vt 0.770526 0.719501
vt 0.805074 0.719501
vt 0.808327 0.719501
vt 0.125000 0.524750
vt 0.142501 0.517501
vt 0.142501 0.732499
vt 0.125000 0.725250
vt 0.194926 0.719501
vt 0.229474 0.719501
vt 0.267274 0.719501
vt 0.270526 0.719501
vt 0.305074 0.719501
vt 0.308327 0.719501
vt 0.405499 0.395839
vt 0.594501 0.395839
vt 0.594501 0.429762
vt 0.405499 0.429762
vt 0.857499 0.732499
vt 0.850250 0.750000
vt 0.649750 0.750000
vt 0.642501 0.732499
vt 0.405499 0.391961
vt 0.405499 0.395839
vt 0.405499 0.429762
vt 0.405499 0.433639
vt 0.594501 0.145839
vt 0.594501 0.683639
vt 0.594501 0.679762
vt 0.594501 0.645839
vt 0.594501 0.641961
vt 0.594501 0.608039
vt 0.594501 0.604161
vt 0.594501 0.570238
vt 0.594501 0.566361
vt 0.642501 0.517501
vt 0.649750 0.500000
vt 0.875000 0.500000
vt 0.732726 0.719501
vt 0.732726 0.530499
vt 0.767274 0.530499
vt 0.808327 0.530499
vt 0.729474 0.719501
vt 0.694926 0.719501
vt 0.694926 0.530499
vt 0.729474 0.530499
vt 0.691673 0.530499
vt 0.875000 0.725250
vt 0.857499 0.732499
vt 0.607499 0.767501
vt 0.392501 0.017501
vt 0.399750 0.000000
vt 0.600250 0.000000
vt 0.607499 0.017501
vt 0.625000 0.774750
vt 0.625000 0.975250
vt 0.607499 0.982499
vt 0.350250 0.500000
vt 0.142501 0.517501
vt 0.149750 0.500000
vt 0.770526 0.530499
vt 0.805074 0.530499
vt 0.229474 0.719501
vt 0.194926 0.719501
vt 0.194926 0.530499
vt 0.229474 0.530499
vt 0.308327 0.530499
vt 0.305074 0.530499
vt 0.270526 0.530499
vt 0.267274 0.530499
vt 0.229474 0.530499
vt 0.194926 0.530499
vt 0.694926 0.530499
vt 0.691673 0.530499
vt 0.399750 1.000000
vt 0.607499 0.982499
vt 0.600250 1.000000
vt 0.392501 0.982499
s 1
usemtl bois_de_bois.019
f 14/1/1 15/2/1 38/2/1 39/1/1
f 10/3/2 11/4/2 34/4/2 35/3/2
f 6/5/3 7/6/3 30/6/3 31/5/3
f 258/7/1 257/8/1 244/9/1 243/10/1 2/11/1 5/12/1
f 276/13/4 275/14/4 255/15/4 254/16/4 6/5/4 9/17/4
f 1/18/1 259/19/1 258/20/1 5/12/1 4/21/1
f 1/18/4 280/22/4 279/23/4 8/24/4 7/6/4
f 279/25/4 278/26/4 277/27/4 276/28/4 9/17/4 8/24/4
f 263/29/5 262/30/5 20/31/5 19/32/5 274/33/5 273/34/5
f 267/35/3 266/36/3 265/37/3 264/38/3 13/39/3 12/40/3
f 262/41/5 261/42/5 246/43/5 245/44/5 21/45/5 20/31/5
f 4/21/2 5/12/2 28/12/2 29/21/2
f 8/24/1 9/17/1 32/17/1 33/24/1
f 283/66/3 282/67/3 268/68/3 267/69/3 12/40/3 11/4/3
f 12/40/4 13/39/4 36/39/4 37/40/4
f 16/70/3 17/71/3 40/71/3 41/70/3
f 282/67/6 281/72/6 22/73/6 25/74/6 269/75/6 268/68/6
f 252/76/1 251/77/1 1/18/1 4/21/1 3/78/1
f 2/11/4 3/78/4 27/78/4 26/11/4
f 80/65/1 79/64/1 78/83/1 81/84/1
f 264/88/3 263/29/3 273/34/3 272/89/3 10/3/3 13/39/3
f 247/94/2 246/95/2 261/96/2 260/97/2 14/1/2 17/71/2
f 17/71/6 14/1/6 39/1/6 136/98/6 137/99/6 134/100/6 135/58/6 132/101/6 133/102/6 130/93/6 131/103/6 40/71/6
f 254/16/4 259/19/4 1/18/4 7/6/4 6/5/4
f 272/89/3 277/27/3 278/26/3 283/66/3 11/4/3 10/3/3
f 15/2/5 16/70/5 41/70/5 144/110/5 145/111/5 142/112/5 143/113/5 140/114/5 141/115/5 138/116/5 139/117/5 38/2/5
f 7/6/5 8/24/5 33/24/5 128/123/5 129/124/5 126/125/5 127/126/5 124/127/5 125/128/5 122/129/5 123/130/5 30/6/5
f 5/12/6 2/11/6 26/11/6 106/139/6 107/140/6 108/141/6 109/142/6 110/49/6 111/143/6 112/83/6 113/64/6 28/12/6
f 13/39/6 10/3/6 35/3/6 90/149/6 91/144/6 92/150/6 93/151/6 94/57/6 95/152/6 96/153/6 97/154/6 36/39/6
f 3/78/5 4/21/5 29/21/5 98/65/5 99/155/5 100/156/5 101/157/5 102/158/5 103/159/5 104/160/5 105/161/5 27/78/5
f 18/86/3 43/86/3 44/45/3 21/45/3
f 22/73/1 47/73/1 48/74/1 25/74/1
f 20/31/1 45/31/1 42/32/1 19/32/1
f 24/166/3 49/166/3 46/167/3 23/167/3
f 24/166/4 25/74/4 48/74/4 202/168/4 203/169/4 204/170/4 205/171/4 206/172/4 207/173/4 208/174/4 209/175/4 49/166/4
f 257/176/5 256/177/5 18/86/5 21/45/5 245/178/5 244/179/5
f 20/31/4 21/45/4 44/45/4 218/85/4 219/180/4 220/181/4 221/80/4 222/182/4 223/183/4 224/184/4 225/185/4 45/31/4
f 250/190/6 249/191/6 270/192/6 269/193/6 25/74/6 24/166/6
f 9/17/6 6/5/6 31/5/6 120/132/6 121/133/6 118/136/6 119/50/6 116/194/6 117/195/6 114/196/6 115/197/6 32/17/6
f 115/197/6 114/196/6 177/196/6 176/197/6
f 102/47/2 109/46/2 71/46/2 72/47/2
f 136/119/1 139/118/1 146/118/1 149/119/1
f 128/138/1 115/137/1 176/137/1 175/138/1
f 103/159/5 102/158/5 72/158/5 73/159/5
f 137/99/6 136/98/6 149/98/6 148/99/6
f 129/124/5 128/123/5 175/123/5 174/124/5
f 110/49/4 101/48/4 77/48/4 74/49/4
f 138/121/3 137/120/3 148/120/3 147/121/3
f 116/53/3 127/52/3 170/52/3 173/53/3
f 111/143/6 110/49/6 74/49/6 75/143/6
f 139/117/5 138/116/5 147/116/5 146/117/5
f 117/195/6 116/194/6 173/194/6 172/195/6
f 100/198/2 111/143/2 75/143/2 76/198/2
f 90/149/2 89/148/2 53/148/2 50/149/2
f 126/187/1 117/186/1 172/186/1 171/187/1
f 11/4/5 12/40/5 37/40/5 82/199/5 83/200/5 84/201/5 85/202/5 86/203/5 87/204/5 88/205/5 89/206/5 34/4/5
f 76/198/1 75/143/1 74/49/1 77/48/1
f 72/47/1 71/46/1 70/107/1 73/106/1
f 68/105/1 67/104/1 66/109/1 69/108/1
f 64/63/3 63/62/3 62/165/3 65/164/3
f 60/163/3 59/162/3 58/57/3 61/56/3
f 56/55/3 55/54/3 54/147/3 57/146/3
f 52/145/3 51/144/3 50/149/3 53/148/3
f 147/121/2 148/120/2 149/119/2 146/118/2
f 151/59/2 152/58/2 153/100/2 150/122/2
f 155/91/2 156/90/2 157/61/2 154/60/2
f 159/110/2 160/103/2 161/93/2 158/92/2
f 163/134/4 164/133/4 165/132/4 162/131/4
f 167/51/4 168/50/4 169/136/4 166/135/4
f 171/187/4 172/186/4 173/53/4 170/52/4
f 175/138/4 176/137/4 177/189/4 174/188/4
f 141/115/5 140/114/5 151/114/5 150/115/5
f 109/142/6 108/141/6 70/141/6 71/142/6
f 114/189/3 129/188/3 174/188/3 177/189/3
f 140/59/3 135/58/3 152/58/3 151/59/3
f 108/107/4 103/106/4 73/106/4 70/107/4
f 135/58/6 134/100/6 153/100/6 152/58/6
f 105/161/5 104/160/5 68/160/5 69/161/5
f 134/100/1 141/122/1 150/122/1 153/100/1
f 104/105/2 107/104/2 67/104/2 68/105/2
f 143/113/5 142/112/5 155/112/5 154/113/5
f 107/140/6 106/139/6 66/139/6 67/140/6
f 142/91/3 133/90/3 156/90/3 155/91/3
f 106/109/4 105/108/4 69/108/4 66/109/4
f 133/102/6 132/101/6 157/101/6 156/102/6
f 83/200/5 82/199/5 64/199/5 65/200/5
f 132/61/1 143/60/1 154/60/1 157/61/1
f 82/63/4 97/62/4 63/62/4 64/63/4
f 145/111/5 144/110/5 159/110/5 158/111/5
f 97/154/6 96/153/6 62/153/6 63/154/6
f 144/110/3 131/103/3 160/103/3 159/110/3
f 96/165/2 83/164/2 65/164/2 62/165/2
f 131/103/6 130/93/6 161/93/6 160/103/6
f 85/202/5 84/201/5 60/201/5 61/202/5
f 130/93/1 145/92/1 158/92/1 161/93/1
f 84/163/4 95/162/4 59/162/4 60/163/4
f 123/130/5 122/129/5 163/129/5 162/130/5
f 95/152/6 94/57/6 58/57/6 59/152/6
f 122/134/1 121/133/1 164/133/1 163/134/1
f 94/57/2 85/56/2 61/56/2 58/57/2
f 121/133/6 120/132/6 165/132/6 164/133/6
f 87/204/5 86/203/5 56/203/5 57/204/5
f 120/132/3 123/131/3 162/131/3 165/132/3
f 86/55/4 93/54/4 55/54/4 56/55/4
f 125/128/5 124/127/5 167/127/5 166/128/5
f 93/151/6 92/150/6 54/150/6 55/151/6
f 99/155/5 98/65/5 80/65/5 81/155/5
f 124/51/1 119/50/1 168/50/1 167/51/1
f 92/147/2 87/146/2 57/146/2 54/147/2
f 98/65/2 113/64/2 79/64/2 80/65/2
f 119/50/6 118/136/6 169/136/6 168/50/6
f 89/206/5 88/205/5 52/205/5 53/206/5
f 113/64/6 112/83/6 78/83/6 79/64/6
f 118/136/3 125/135/3 166/135/3 169/136/3
f 88/145/4 91/144/4 51/144/4 52/145/4
f 112/83/4 99/84/4 81/84/4 78/83/4
f 127/126/5 126/125/5 171/125/5 170/126/5
f 91/144/6 90/149/6 50/149/6 51/144/6
f 101/157/5 100/156/5 76/156/5 77/157/5
f 281/207/6 280/208/6 1/209/6 23/167/6 22/73/6
f 251/219/6 250/220/6 24/166/6 23/167/6 1/209/6
f 260/97/2 265/37/2 266/36/2 271/221/2 15/2/2 14/1/2
f 243/222/1 242/223/1 253/224/1 252/225/1 3/78/1 2/11/1
f 271/221/2 270/226/2 249/227/2 248/228/2 16/70/2 15/2/2
f 275/229/5 274/33/5 19/32/5 18/86/5 256/230/5 255/231/5
f 18/86/2 19/32/2 42/32/2 210/238/2 211/239/2 212/240/2 213/241/2 214/81/2 215/242/2 216/243/2 217/87/2 43/86/2
f 192/174/6 191/233/6 190/213/6 193/175/6
f 203/169/4 202/168/4 180/168/4 181/169/4
f 222/79/3 213/82/3 236/82/3 235/79/3
f 198/211/3 205/210/3 185/210/3 182/211/3
f 223/183/4 222/182/4 235/182/4 234/183/4
f 199/217/2 198/211/2 182/211/2 183/217/2
f 214/81/1 221/80/1 230/80/1 233/81/1
f 204/214/1 199/217/1 183/217/1 184/214/1
f 215/242/2 214/81/2 233/81/2 232/242/2
f 22/73/2 23/167/2 46/167/2 194/213/2 195/233/2 196/232/2 197/212/2 198/211/2 199/217/2 200/244/2 201/245/2 47/73/2
f 188/172/6 187/212/6 186/232/6 189/173/6
f 184/214/6 183/217/6 182/211/6 185/210/6
f 180/168/6 179/218/6 178/216/6 181/215/6
f 227/85/5 228/87/5 229/236/5 226/235/5
f 231/234/5 232/237/5 233/81/5 230/80/5
f 235/79/5 236/82/5 237/240/5 234/183/5
f 239/184/5 240/239/5 241/238/5 238/185/5
f 213/241/2 212/240/2 237/240/2 236/241/2
f 202/168/1 201/218/1 179/218/1 180/168/1
f 209/175/4 208/174/4 192/174/4 193/175/4
f 212/240/1 223/183/1 234/183/1 237/240/1
f 201/245/2 200/244/2 178/244/2 179/245/2
f 208/174/1 195/233/1 191/233/1 192/174/1
f 225/185/4 224/184/4 239/184/4 238/185/4
f 200/216/3 203/215/3 181/215/3 178/216/3
f 195/233/2 194/213/2 190/213/2 191/233/2
f 224/184/3 211/239/3 240/239/3 239/184/3
f 219/180/4 218/85/4 227/85/4 226/180/4
f 194/213/3 209/175/3 193/175/3 190/213/3
f 211/239/2 210/238/2 241/238/2 240/239/2
f 218/85/3 217/87/3 228/87/3 227/85/3
f 207/173/4 206/172/4 188/172/4 189/173/4
f 210/238/1 225/185/1 238/185/1 241/238/1
f 217/87/2 216/243/2 229/243/2 228/87/2
f 206/172/1 197/212/1 187/212/1 188/172/1
f 216/236/1 219/235/1 226/235/1 229/236/1
f 197/212/2 196/232/2 186/232/2 187/212/2
f 221/80/4 220/181/4 231/181/4 230/80/4
f 196/232/3 207/173/3 189/173/3 186/232/3
f 220/234/3 215/237/3 232/237/3 231/234/3
f 205/171/4 204/170/4 184/170/4 185/171/4
f 242/246/7 243/222/7 244/9/7 245/178/7 246/43/7 247/94/7
f 248/247/8 249/227/8 250/190/8 251/219/8 252/76/8 253/224/8
f 254/16/9 255/15/9 256/230/9 257/176/9 258/7/9 259/19/9
f 260/97/10 261/96/10 262/41/10 263/29/10 264/88/10 265/37/10
f 266/36/11 267/35/11 268/68/11 269/75/11 270/192/11 271/221/11
f 272/89/12 273/34/12 274/33/12 275/229/12 276/13/12 277/27/12
f 278/26/13 279/25/13 280/22/13 281/207/13 282/67/13 283/66/13
f 248/247/2 253/248/2 242/246/2 247/249/2 17/71/2 16/70/2
usemtl bois_.019
f 109/46/1 102/47/1 101/48/1 110/49/1
f 119/50/4 124/51/4 127/52/4 116/53/4
f 93/54/3 86/55/3 85/56/3 94/57/3
f 135/58/2 140/59/2 143/60/2 132/61/2
f 97/62/3 82/63/3 37/40/3 36/39/3
f 113/64/1 98/65/1 29/21/1 28/12/1
f 222/79/5 221/80/5 214/81/5 213/82/5
f 218/85/5 44/45/5 43/86/5 217/87/5
f 133/90/2 142/91/2 145/92/2 130/93/2
f 107/104/1 104/105/1 103/106/1 108/107/1
f 26/11/1 27/78/1 105/108/1 106/109/1
f 39/1/2 38/2/2 139/118/2 136/119/2
f 137/120/2 138/121/2 141/122/2 134/100/2
f 131/103/2 144/110/2 41/70/2 40/71/2
f 31/5/4 30/6/4 123/131/4 120/132/4
f 121/133/4 122/134/4 125/135/4 118/136/4
f 115/137/4 128/138/4 33/24/4 32/17/4
f 91/144/3 88/145/3 87/146/3 92/147/3
f 35/3/3 34/4/3 89/148/3 90/149/3
f 95/162/3 84/163/3 83/164/3 96/165/3
f 117/186/4 126/187/4 129/188/4 114/189/4
f 111/143/1 100/198/1 99/84/1 112/83/1
f 206/172/6 205/210/6 198/211/6 197/212/6
f 49/166/6 209/175/6 194/213/6 46/167/6
f 204/214/6 203/215/6 200/216/6 199/217/6
f 202/168/6 48/74/6 47/73/6 201/218/6
f 208/174/6 207/173/6 196/232/6 195/233/6
f 220/234/5 219/235/5 216/236/5 215/237/5
f 224/184/5 223/183/5 212/240/5 211/239/5
f 45/31/5 225/185/5 210/238/5 42/32/5
