# Blender 3.6.0
# www.blender.org
mtllib barrel2.mtl
o Cylinder.003
v -0.677175 0.471942 -0.293024
v -0.677175 0.325430 -0.253766
v 0.647167 0.325430 -0.253766
v -0.677175 0.218176 -0.146512
v 0.647167 0.218176 -0.146512
v 0.647167 0.178918 0.000000
v -0.677175 0.218176 0.146512
v 0.647167 0.218176 0.146512
v -0.677175 0.325430 0.253766
v 0.647167 0.325430 0.253766
v -0.677175 0.471942 0.293024
v 0.647167 0.471942 0.293024
v -0.677175 0.618454 0.253766
v 0.647167 0.618454 0.253766
v -0.677175 0.725708 0.146512
v 0.647167 0.725708 0.146512
v -0.677175 0.725708 -0.146512
v 0.647167 0.725708 -0.146512
v -0.677175 0.618454 -0.253766
v 0.647167 0.618454 -0.253766
v -0.341543 0.700473 -0.395828
v -0.225003 0.706550 -0.406353
v -0.341543 0.471942 -0.457063
v -0.225003 0.471942 -0.469216
v 0.311535 0.700473 -0.395828
v 0.194995 0.706550 -0.406353
v 0.311535 0.471942 -0.457063
v 0.194995 0.471942 -0.469216
v -0.341543 0.867770 -0.228532
v -0.225003 0.878295 -0.234608
v 0.311535 0.867770 -0.228532
v 0.194995 0.878295 -0.234608
v -0.341543 0.929005 0.000000
v -0.225003 0.941158 0.000000
v 0.311535 0.929005 0.000000
v 0.194995 0.941158 0.000000
v -0.341543 0.867770 0.228532
v -0.225003 0.878295 0.234608
v 0.311535 0.867770 0.228532
v 0.194995 0.878295 0.234608
v -0.341543 0.700473 0.395828
v -0.225003 0.706550 0.406353
v 0.311535 0.700473 0.395828
v 0.194995 0.706550 0.406353
v -0.341543 0.471942 0.457063
v -0.225003 0.471942 0.469216
v 0.311535 0.471942 0.457063
v 0.194995 0.471942 0.469216
v -0.341543 0.243410 0.395828
v -0.225003 0.237334 0.406353
v 0.311535 0.243410 0.395828
v 0.194995 0.237334 0.406353
v -0.341543 0.076113 0.228532
v -0.225003 0.065589 0.234608
v 0.311535 0.076114 0.228532
v 0.194995 0.065589 0.234608
v -0.341543 0.014879 0.000000
v -0.225003 0.002726 0.000000
v 0.311535 0.014879 0.000000
v 0.194995 0.002726 0.000000
v -0.341543 0.076113 -0.228532
v -0.225003 0.065589 -0.234608
v 0.311535 0.076114 -0.228532
v 0.194995 0.065589 -0.234608
v -0.341543 0.243410 -0.395828
v -0.225003 0.237334 -0.406353
v 0.311535 0.243410 -0.395828
v 0.194995 0.237334 -0.406353
v 0.267598 0.471942 -0.504499
v 0.318595 0.471942 -0.491669
v -0.297606 0.219692 -0.436909
v -0.371094 0.226107 -0.425798
v -0.297606 0.035033 -0.252249
v -0.348603 0.046144 -0.245834
v -0.297606 -0.032557 0.000000
v -0.348603 -0.019727 0.000000
v -0.297606 0.035033 0.252249
v -0.348603 0.046144 0.245834
v -0.297606 0.219692 0.436909
v -0.348603 0.226107 0.425798
v -0.297606 0.471942 0.504499
v -0.348603 0.471942 0.491669
v -0.297606 0.724191 0.436909
v -0.348603 0.717776 0.425798
v -0.297606 0.908850 0.252249
v -0.348603 0.897739 0.245834
v -0.297606 0.976440 0.000000
v -0.330150 0.963610 0.000000
v -0.297606 0.908850 -0.252249
v -0.357391 0.897739 -0.245834
v -0.297606 0.724191 -0.436909
v -0.331971 0.717776 -0.425798
v -0.348603 0.471942 -0.491669
v -0.297606 0.471942 -0.504499
v -0.225003 0.471942 -0.504715
v 0.281823 0.226107 -0.425798
v 0.267598 0.219692 -0.436909
v -0.225003 0.219584 -0.437096
v 0.318595 0.046144 -0.245834
v 0.267598 0.035033 -0.252249
v -0.225003 0.034846 -0.252357
v 0.289988 -0.026924 0.000000
v 0.267598 -0.032557 0.000000
v -0.225003 -0.032773 0.000000
v 0.318595 0.046144 0.245834
v 0.267598 0.035033 0.252249
v -0.225003 0.034846 0.252357
v 0.318595 0.226107 0.425798
v 0.267598 0.219692 0.436909
v -0.225003 0.219584 0.437096
v 0.306794 0.471942 0.491669
v 0.267598 0.471942 0.504499
v -0.225003 0.471942 0.504715
v 0.318595 0.717776 0.425798
v 0.267598 0.724191 0.436909
v -0.225003 0.724299 0.437096
v 0.318595 0.897739 0.245834
v 0.267598 0.908850 0.252249
v -0.225003 0.909037 0.252357
v 0.318595 0.963610 0.000000
v 0.267598 0.976440 0.000000
v -0.225003 0.976656 0.000000
v 0.318595 0.897739 -0.245834
v 0.267598 0.908850 -0.252249
v -0.225003 0.909037 -0.252357
v 0.318595 0.717776 -0.425798
v 0.267598 0.724191 -0.436909
v -0.225003 0.724299 -0.437096
v 0.194995 0.724299 -0.437096
v 0.194995 0.471942 -0.504715
v 0.194995 0.909037 -0.252357
v 0.194995 0.976656 0.000000
v 0.230723 0.909037 0.252357
v 0.194995 0.724299 0.437096
v 0.194995 0.471942 0.504715
v 0.194995 0.219584 0.437096
v 0.194995 0.034846 0.252357
v 0.194995 -0.032773 0.000000
v 0.194995 0.034846 -0.252357
v 0.194995 0.219584 -0.437096
v -0.677175 0.471942 -0.371058
v -0.677175 0.286413 -0.321346
v 0.647167 0.286413 -0.321346
v -0.677175 0.150596 -0.185529
v 0.647167 0.150596 -0.185529
v 0.647167 0.100884 0.000000
v -0.677175 0.150596 0.185529
v 0.647167 0.150596 0.185529
v -0.677175 0.286413 0.321346
v 0.647167 0.286413 0.321346
v -0.677175 0.471942 0.371058
v 0.608038 0.471942 0.371058
v -0.677175 0.657471 0.321346
v 0.647167 0.657471 0.321346
v -0.677175 0.793287 0.185529
v 0.647167 0.793287 0.185529
v -0.677175 0.793287 -0.185529
v 0.647167 0.793287 -0.185529
v -0.677175 0.657471 -0.321346
v 0.647167 0.657471 -0.321346
v -0.568130 0.471942 -0.272916
v -0.568130 0.335484 -0.236352
v 0.538122 0.338187 -0.231670
v 0.538122 0.471942 -0.267510
v -0.568130 0.235590 -0.136458
v 0.538122 0.240272 -0.133755
v -0.568130 0.199026 0.000000
v 0.538122 0.204432 0.000000
v -0.568130 0.235590 0.136458
v 0.538122 0.240272 0.133755
v -0.568130 0.335484 0.236352
v 0.538122 0.338187 0.231670
v -0.568130 0.471942 0.272916
v 0.538122 0.471942 0.267510
v -0.568130 0.608399 0.236352
v 0.538122 0.605697 0.231670
v -0.568130 0.708293 0.136458
v 0.538122 0.703612 0.133755
v -0.568130 0.744857 0.000000
v 0.538122 0.739451 0.000000
v -0.568130 0.708293 -0.136458
v 0.538122 0.703612 -0.133755
v -0.568130 0.608399 -0.236352
v 0.538122 0.605697 -0.231670
v 0.647167 0.736562 -0.106003
v 0.647167 0.736562 0.106003
v 0.554580 0.743302 0.000000
v 0.647167 0.814596 0.106003
v 0.647167 0.814596 -0.106003
v 0.554963 0.866627 0.000000
v 0.647167 0.428986 -0.281514
v 0.647167 0.514897 -0.281514
v 0.609648 0.471942 -0.284245
v 0.621174 0.471942 -0.286281
v 0.647167 0.514897 -0.359548
v 0.647167 0.428986 -0.359548
v 0.609803 0.471942 -0.380632
v 0.621174 0.471942 -0.364316
v -0.677175 0.194014 -0.056340
v -0.677175 0.194014 0.056340
v -0.627571 0.188065 0.000000
v -0.640375 0.187761 0.000000
v -0.677175 0.115980 0.056340
v -0.677175 0.115980 -0.056340
v -0.628169 0.088326 0.000000
v -0.640375 0.109727 0.000000
v -0.677175 0.738962 0.097046
v -0.677175 0.738962 -0.097046
v -0.591732 0.749210 0.000000
v -0.677175 0.749733 0.000000
v -0.677175 0.816996 -0.097046
v -0.677175 0.816996 0.097046
v -0.592761 0.864630 0.000000
v -0.677175 0.827767 0.000000
v 0.608282 0.736562 -0.000000
v 0.608282 0.814596 0.000000
vn 0.9784 -0.1461 -0.1461
vn -0.9784 0.1996 0.0535
vn 1.0000 -0.0000 -0.0000
vn -1.0000 -0.0000 -0.0000
vn 0.9784 0.1461 -0.1461
vn -0.9963 -0.0498 0.0706
vn 0.9447 -0.1763 -0.2764
vn 0.2204 -0.6897 0.6897
vn -0.9784 -0.0535 -0.1996
vn 0.9447 -0.1512 -0.2909
vn 0.9784 -0.1996 -0.0535
vn -0.9784 0.1996 -0.0535
vn 0.9784 -0.0535 0.1996
vn -0.8851 0.3704 0.2817
vn 0.9991 0.0322 -0.0273
vn -0.8764 0.1630 0.4532
vn 0.9801 -0.1985 0.0029
vn -0.9784 -0.1461 -0.1461
vn -0.9987 0.0424 -0.0275
vn 0.9784 -0.1996 0.0535
vn -0.9784 0.1461 -0.1461
vn -0.8851 0.4292 0.1799
vn 0.9991 -0.0322 -0.0273
vn -0.2403 0.6864 -0.6864
vn -0.9943 -0.1024 0.0296
vn -0.2403 0.2512 -0.9376
vn -0.8764 0.3110 0.3677
vn 0.2403 0.2512 -0.9376
vn -0.0000 0.2588 -0.9659
vn -0.0000 0.7071 -0.7071
vn 0.2403 0.6864 -0.6864
vn -0.2403 0.9376 -0.2512
vn -0.0000 0.9659 -0.2588
vn 0.9801 -0.1985 -0.0029
vn -0.2403 0.6864 0.6864
vn -0.0000 0.9659 0.2588
vn -0.9972 0.0721 -0.0195
vn 0.2403 0.9376 -0.2512
vn -0.2403 0.2512 0.9376
vn -0.0000 0.7071 0.7071
vn 0.2403 0.6864 0.6864
vn -0.2403 -0.2512 0.9376
vn -0.0000 0.2588 0.9659
vn 0.2541 0.2278 0.9399
vn -0.2403 -0.6864 0.6864
vn -0.0000 -0.2588 0.9659
vn 0.9784 -0.1461 0.1461
vn 0.2541 -0.2278 0.9399
vn -0.0000 -0.7071 0.7071
vn -0.9784 0.0535 -0.1996
vn 0.2403 -0.6864 0.6864
vn -0.2403 -0.9376 0.2512
vn -0.0000 -0.9659 0.2588
vn 0.2403 -0.9376 0.2512
vn -0.2403 -0.6864 -0.6864
vn -0.0000 -0.9659 -0.2588
vn 0.2403 -0.9376 -0.2512
vn -0.2403 -0.2512 -0.9376
vn -0.0000 -0.7071 -0.7071
vn -0.0000 -0.2588 -0.9659
vn 0.2403 -0.6864 -0.6864
vn 0.3551 -0.2663 -0.8961
vn 0.3551 -0.6429 -0.6787
vn 0.2361 -0.9386 -0.2515
vn 0.2361 -0.9386 0.2515
vn 0.2361 -0.6871 0.6871
vn 0.2650 -0.2437 0.9330
vn 0.2650 0.2437 0.9330
vn 0.2361 0.6871 0.6871
vn 0.2361 0.9386 0.2515
vn 0.2361 0.9386 -0.2515
vn 0.2361 0.6871 -0.6871
vn 0.2361 0.2515 -0.9386
vn -0.2788 0.2572 -0.9252
vn -0.0029 0.2588 -0.9659
vn -0.2546 0.6749 -0.6926
vn 0.0029 0.7071 -0.7071
vn -0.2592 0.9364 -0.2367
vn 0.0029 0.9659 -0.2588
vn -0.2844 0.9286 0.2383
vn 0.0038 0.9660 0.2586
vn -0.2361 0.6871 0.6871
vn 0.0038 0.7069 0.7073
vn -0.2361 0.2515 0.9386
vn 0.0029 0.2588 0.9659
vn -0.2361 -0.2515 0.9386
vn 0.0029 -0.2588 0.9659
vn -0.2361 -0.6871 0.6871
vn 0.0029 -0.7071 0.7071
vn -0.2361 -0.9386 0.2515
vn 0.0029 -0.9659 0.2588
vn -0.2361 -0.9386 -0.2515
vn 0.0029 -0.9659 -0.2588
vn -0.1953 -0.6995 -0.6874
vn 0.0029 -0.7071 -0.7071
vn -0.1953 -0.2456 -0.9495
vn -0.0029 -0.2588 -0.9659
vn 0.0029 0.2588 -0.9659
vn 0.0029 -0.2588 -0.9659
vn -0.0029 0.7071 -0.7071
vn -0.0029 0.9659 -0.2588
vn -0.0029 0.9659 0.2588
vn -0.0029 0.7071 0.7071
vn -0.0029 0.2588 0.9659
vn -0.0029 -0.2588 0.9659
vn -0.0029 -0.7071 0.7071
vn -0.0029 -0.9659 0.2588
vn -0.0029 -0.9659 -0.2588
vn -0.0029 -0.7071 -0.7071
vn 0.2204 -0.2525 0.9422
vn -0.1754 0.9510 -0.2548
vn -0.2403 -0.9376 -0.2512
vn 0.9621 0.0411 0.2696
vn 0.9621 -0.0411 0.2696
vn -0.1754 -0.9510 0.2548
vn 0.2204 -0.9422 0.2525
vn -0.2403 0.9376 0.2512
vn 0.2403 -0.2512 -0.9376
vn -0.1754 -0.6961 -0.6961
vn 0.2204 0.9422 -0.2525
vn -0.1754 -0.2548 0.9510
vn -0.1754 0.2548 0.9510
vn 0.2204 -0.6897 -0.6897
vn -0.1754 0.6961 -0.6961
vn 0.2204 0.6897 -0.6897
vn -0.1754 0.6961 0.6961
vn -0.1754 0.2548 -0.9510
vn 0.2204 0.6897 0.6897
vn 0.2204 0.2525 -0.9422
vn 0.2403 0.9376 0.2512
vn -0.1754 -0.2548 -0.9510
vn 0.2204 0.9422 0.2525
vn -0.1754 -0.6961 0.6961
vn 0.2204 -0.2525 -0.9422
vn -0.1245 -0.9922 -0.0000
vn 0.6984 0.7157 -0.0000
vn 0.9388 -0.0000 -0.3444
vn 0.2204 -0.9422 -0.2525
vn 0.1701 0.2098 0.9628
vn 0.1701 -0.2098 0.9628
vn 0.7529 -0.3974 -0.5247
vn 0.7529 0.3974 -0.5247
vn 0.8556 -0.5177 -0.0000
vn 0.8556 0.5177 -0.0000
vn 0.2204 0.2525 0.9422
vn -0.0235 0.9918 0.1255
vn -0.0235 0.9918 -0.1255
vn -0.7731 -0.4409 -0.4560
vn -0.7731 -0.4409 0.4560
vn -0.8372 -0.0000 -0.5469
vn -0.8372 -0.0000 0.5469
vn -0.1754 0.9510 0.2548
vn -0.0061 -0.9939 -0.1103
vn -0.0061 -0.9939 0.1103
vn -0.3981 0.9117 -0.1012
vn -0.3981 0.9117 0.1012
vn -0.1754 -0.9510 -0.2548
vn 0.9388 -0.0000 0.3444
vt 0.416667 0.853968
vt 0.333333 0.853968
vt 0.750000 0.646032
vt 0.833333 0.646032
vt 0.166667 0.687302
vt 0.083333 0.687302
vt 0.416667 0.812698
vt 0.500000 0.812698
vt 0.666667 0.853968
vt 0.583333 0.853968
vt 0.166667 0.646032
vt 0.250000 0.646032
vt 0.416667 0.687302
vt 0.333333 0.687302
vt 0.666667 0.812698
vt 0.750000 0.812698
vt 0.000000 0.812698
vt 0.083333 0.812698
vt 0.916667 0.853968
vt 0.833333 0.853968
vt 0.155236 0.414136
vt 0.085864 0.344764
vt 0.416667 0.646032
vt 0.500000 0.646032
vt 0.666667 0.687302
vt 0.583333 0.687302
vt 0.914136 0.155236
vt 0.929763 0.213559
vt 0.980236 0.213559
vt 0.957846 0.130000
vt 1.000000 0.853968
vt 0.916667 0.812698
vt 1.000000 0.812698
vt 0.250000 0.853968
vt 0.666667 0.646032
vt 0.083333 0.853968
vt 0.000000 0.853968
vt 0.916667 0.687302
vt 0.833333 0.687302
vt 0.333333 0.812698
vt 0.500000 0.853968
vt 0.166667 0.812698
vt 0.916667 0.646032
vt 1.000000 0.646032
vt 0.250000 0.687302
vt 0.583333 0.812698
vt 1.000000 0.687302
vt 0.750000 0.853968
vt 0.750000 0.842393
vt 0.333333 0.646032
vt 0.500000 0.687302
vt 0.000000 0.646032
vt 0.083333 0.646032
vt 0.833333 0.812698
vt 0.166667 0.853968
vt 0.583333 0.646032
vt 0.000000 0.687302
vt 0.750000 0.687302
vt 0.250000 0.812698
vt 0.166667 0.500000
vt 0.083333 0.500000
vt 0.000000 0.500000
vt 0.083333 1.000000
vt 0.019294 1.000000
vt 0.000000 0.983743
vt 0.166667 1.000000
vt 0.206410 0.500000
vt 0.250000 0.536728
vt 0.416667 0.500000
vt 0.333333 0.500000
vt 0.250000 0.959882
vt 0.202387 1.000000
vt 0.500000 0.500000
vt 0.416667 1.000000
vt 0.333333 1.000000
vt 0.583333 0.500000
vt 0.500000 1.000000
vt 0.666667 0.500000
vt 0.583333 1.000000
vt 0.666667 1.000000
vt 0.724694 0.500000
vt 0.750000 0.521322
vt 0.750000 1.000000
vt 0.916667 0.500000
vt 0.833333 0.500000
vt 0.833333 1.000000
vt 1.000000 0.500000
vt 0.916667 1.000000
vt 1.000000 0.833333
vt 0.916667 0.833333
vt 0.833333 0.833333
vt 0.750000 0.833333
vt 0.666667 0.833333
vt 0.583333 0.833333
vt 0.500000 0.833333
vt 0.416667 0.833333
vt 0.333333 0.833333
vt 0.250000 0.833333
vt 0.166667 0.833333
vt 0.083333 0.833333
vt 0.000000 0.833333
vt 0.083333 0.666667
vt 0.000000 0.666667
vt 0.166667 0.666667
vt 0.250000 0.666667
vt 0.333333 0.666667
vt 0.416667 0.666667
vt 0.500000 0.666667
vt 0.583333 0.666667
vt 0.666667 0.666667
vt 0.750000 0.666667
vt 0.833333 0.666667
vt 0.916667 0.666667
vt 1.000000 0.666667
vt 0.844764 0.414136
vt 0.750000 0.439528
vt 0.750000 0.490000
vt 0.870000 0.457846
vt 0.250000 0.439528
vt 0.222216 0.432083
vt 0.914136 0.344764
vt 0.957846 0.370000
vt 0.344764 0.414136
vt 0.414136 0.344764
vt 0.457846 0.370000
vt 0.370000 0.457846
vt 0.939528 0.250000
vt 0.929763 0.213559
vt 0.939528 0.250000
vt 0.439528 0.250000
vt 0.490000 0.250000
vt 0.775306 0.500000
vt 0.414136 0.155236
vt 0.457846 0.130000
vt 0.844764 0.085864
vt 0.870000 0.042154
vt 0.344764 0.085864
vt 0.370000 0.042154
vt 0.750000 0.060472
vt 0.750000 0.010000
vt 0.250000 0.060472
vt 0.250000 0.010000
vt 0.655236 0.085864
vt 0.630000 0.042154
vt 0.155236 0.085864
vt 0.130000 0.042154
vt 0.585864 0.155236
vt 0.542154 0.130000
vt 0.085864 0.155236
vt 0.042154 0.130000
vt 0.560472 0.250000
vt 0.577291 0.312770
vt 0.585864 0.344764
vt 0.078844 0.318562
vt 0.060472 0.250000
vt 0.250000 0.536728
vt 0.293590 0.500000
vt 0.078844 0.181438
vt 0.028371 0.181438
vt 0.655236 0.414136
vt 0.542154 0.370000
vt 0.630000 0.457846
vt 0.130000 0.457846
vt 0.042154 0.370000
vt 1.000000 0.983743
vt 0.980706 1.000000
vt 0.222216 0.482555
vt 0.277784 0.432083
vt 0.277784 0.482555
vt 0.577291 0.187230
vt 0.526819 0.187230
vt 0.028371 0.318562
vt 0.526819 0.312770
vt 0.929763 0.286441
vt 0.980236 0.286441
vt 0.297613 1.000000
vt 0.250000 0.959882
vt 0.078844 0.250000
vt 0.028371 0.215719
vt 0.028371 0.250000
vt 0.010000 0.250000
vt 0.028371 0.250000
vt 0.250000 0.435167
vt 0.222216 0.432083
vt 0.000757 1.000000
vt 0.000000 1.000000
vt 0.250000 0.485639
vt 0.933808 0.250000
vt 0.984280 0.250000
vt 0.990000 0.250000
vt 0.980236 0.250000
vt 0.570325 0.250000
vt 0.577291 0.312770
vt 0.526819 0.250000
vt 0.519852 0.250000
vt 0.510000 0.250000
vt 0.577291 0.187230
s 0
usemtl Fass
f 20/21/8 18/22/8 182/22/8 184/21/8
f 7/27/4 200/28/4 203/29/4 147/30/4
f 157/60/24 29/11/24 21/53/24 159/61/24
f 159/61/26 21/53/26 23/52/26 141/62/26
f 25/36/28 160/63/28 195/64/28 197/65/28 27/37/28
f 22/6/29 26/18/29 28/17/29 24/57/29
f 30/5/30 32/42/30 26/18/30 22/6/30
f 31/55/31 158/66/31 160/63/31 25/36/31
f 211/67/32 213/68/32 33/12/32 29/11/32 157/60/32
f 34/45/33 36/59/33 32/42/33 30/5/33
f 153/69/35 41/23/35 37/50/35 155/70/35
f 38/14/36 40/40/36 36/59/36 34/45/36
f 35/34/38 190/71/38 189/72/38 158/66/38 31/55/38
f 151/73/39 45/24/39 41/23/39 153/69/39
f 42/13/40 44/7/40 40/40/40 38/14/40
f 43/1/41 154/74/41 156/75/41 39/2/41
f 149/76/42 49/56/42 45/24/42 151/73/42
f 46/51/43 48/8/43 44/7/43 42/13/43
f 47/41/44 152/77/44 154/74/44 43/1/44
f 147/78/45 53/35/45 49/56/45 149/76/45
f 50/26/46 52/46/46 48/8/46 46/51/46
f 51/10/48 150/79/48 152/77/48 47/41/48
f 54/25/49 56/15/49 52/46/49 50/26/49
f 55/9/51 148/80/51 150/79/51 51/10/51
f 203/81/52 205/82/52 57/3/52 53/35/52 147/78/52
f 58/58/53 60/16/53 56/15/53 54/25/53
f 59/48/54 146/83/54 148/80/54 55/9/54
f 142/84/55 65/43/55 61/4/55 144/85/55
f 62/39/56 64/54/56 60/16/56 58/58/56
f 63/20/57 145/86/57 146/83/57 59/48/57
f 141/87/58 23/44/58 65/43/58 142/84/58
f 66/38/59 68/32/59 64/54/59 62/39/59
f 24/47/60 28/33/60 68/32/60 66/38/60
f 67/19/61 143/88/61 145/86/61 63/20/61
f 2/115/4 1/116/4 141/117/4 142/118/4
f 193/119/110 192/120/110 20/21/110 184/21/110 164/119/110
f 4/121/4 2/115/4 142/118/4 144/122/4
f 3/123/3 5/124/3 145/125/3 143/126/3
f 201/127/111 200/128/111 7/27/111 169/27/111 167/129/111
f 5/124/3 6/130/3 146/131/3 145/125/3
f 144/85/112 61/4/112 57/3/112 205/82/112 204/132/112
f 6/130/3 8/133/3 148/134/3 146/131/3
f 9/135/4 7/27/4 147/30/4 149/136/4
f 8/133/3 10/137/3 150/138/3 148/134/3
f 11/139/4 9/135/4 149/136/4 151/140/4
f 10/137/113 12/141/113 152/142/113 150/138/113
f 13/143/4 11/139/4 151/140/4 153/144/4
f 12/141/114 14/145/114 154/146/114 152/142/114
f 15/147/4 13/143/4 153/144/4 155/148/4
f 14/145/3 16/149/3 156/150/3 154/146/3
f 209/151/115 208/152/115 17/153/115 181/153/115 179/151/115
f 18/22/116 185/154/116 187/155/116 180/155/116 182/22/116
f 155/70/117 37/50/117 33/12/117 213/156/117 212/157/117
f 16/149/3 186/158/3 188/159/3 156/150/3
f 19/160/4 17/153/4 157/161/4 159/162/4
f 18/22/3 20/21/3 160/163/3 158/164/3
f 1/116/4 19/160/4 159/162/4 141/117/4
f 27/31/118 197/165/118 196/166/118 143/88/118 67/19/118
f 163/123/3 164/119/3 184/21/3 182/22/3 180/155/3 178/149/3 176/145/3 174/141/3 172/137/3 170/133/3 168/130/3 166/124/3
f 161/116/4 162/115/4 165/121/4 167/129/4 169/27/4 171/135/4 173/139/4 175/143/4 177/147/4 179/151/4 181/153/4 183/160/4
f 13/143/119 15/147/119 177/147/119 175/143/119
f 8/133/120 6/130/120 168/130/120 170/133/120
f 19/160/121 1/116/121 161/116/121 183/160/121
f 1/116/122 2/115/122 162/115/122 161/116/122
f 16/149/123 14/145/123 176/145/123 178/149/123
f 7/27/124 9/135/124 171/135/124 169/27/124
f 20/21/3 192/120/3 195/167/3 160/163/3
f 191/168/3 3/123/3 143/126/3 196/169/3
f 207/170/4 15/147/4 155/148/4 212/171/4
f 10/137/125 8/133/125 170/133/125 172/137/125
f 2/115/126 4/121/126 165/121/126 162/115/126
f 185/154/3 18/22/3 158/164/3 189/172/3
f 9/135/127 11/139/127 173/139/127 171/135/127
f 5/124/128 3/123/128 163/123/128 166/124/128
f 17/153/4 208/152/4 211/173/4 157/161/4
f 12/141/129 10/137/129 172/137/129 174/141/129
f 199/174/4 4/121/4 144/122/4 204/175/4
f 39/2/130 156/75/130 188/176/130 190/177/130 35/34/130
f 11/139/131 13/143/131 175/143/131 173/139/131
f 6/130/132 5/124/132 166/124/132 168/130/132
f 17/153/133 19/160/133 183/160/133 181/153/133
f 14/145/134 12/141/134 174/141/134 176/145/134
f 185/154/135 215/178/135 186/158/135 187/155/135
f 188/159/136 216/179/136 189/180/136 190/181/136
f 215/178/137 216/182/137 188/159/137 186/158/137
f 187/155/138 186/158/138 16/149/138 178/149/138 180/155/138
f 191/168/139 194/183/139 193/119/139
f 194/183/140 192/184/140 193/119/140
f 195/64/141 198/185/141 197/65/141
f 198/185/142 196/186/142 197/65/142
f 195/167/143 192/120/143 194/119/143 198/187/143
f 198/187/144 194/119/144 191/168/144 196/169/144
f 3/123/145 191/168/145 193/119/145 164/119/145 163/123/145
f 199/174/146 202/188/146 201/127/146
f 202/188/147 200/128/147 201/127/147
f 203/29/148 206/189/148 205/190/148
f 206/189/149 204/191/149 205/190/149
f 203/29/150 200/28/150 202/129/150 206/189/150
f 206/189/151 202/129/151 199/174/151 204/175/151
f 4/121/152 199/174/152 201/127/152 167/129/152 165/121/152
f 207/170/153 210/192/153 209/151/153
f 210/192/154 208/193/154 209/151/154
f 211/194/155 214/195/155 213/196/155
f 214/195/156 212/171/156 213/196/156
f 211/173/4 208/152/4 210/151/4 214/195/4
f 214/195/4 210/151/4 207/170/4 212/171/4
f 15/147/157 207/197/157 209/151/157 179/151/157 177/147/157
f 185/154/158 189/172/158 216/182/158 215/178/158
usemtl Metall
f 43/1/1 39/2/1 117/2/1 114/1/1
f 57/3/2 61/4/2 74/4/2 76/3/2
f 30/5/3 22/6/3 128/6/3 125/5/3
f 44/7/4 48/8/4 135/8/4 134/7/4
f 55/9/5 51/10/5 108/10/5 105/9/5
f 29/11/6 33/12/6 88/12/6 90/11/6
f 42/13/3 38/14/3 119/14/3 116/13/3
f 56/15/4 60/16/4 138/16/4 137/15/4
f 28/17/4 26/18/4 129/18/4 130/17/4
f 67/19/7 63/20/7 99/20/7 96/19/7
f 41/23/9 45/24/9 82/24/9 84/23/9
f 54/25/3 50/26/3 110/26/3 107/25/3
f 27/31/10 67/19/10 96/19/10 70/31/10
f 68/32/4 28/33/4 130/33/4 140/32/4
f 39/2/11 35/34/11 120/34/11 117/2/11
f 53/35/12 57/3/12 76/3/12 78/35/12
f 25/36/13 27/37/13 70/37/13 126/36/13
f 66/38/3 62/39/3 101/39/3 98/38/3
f 40/40/14 44/7/14 134/7/14 133/40/14
f 51/10/15 47/41/15 111/41/15 108/10/15
f 26/18/4 32/42/4 131/42/4 129/18/4
f 65/43/16 23/44/16 93/44/16 72/43/16
f 38/14/3 34/45/3 122/45/3 119/14/3
f 52/46/4 56/15/4 137/15/4 136/46/4
f 24/47/3 66/38/3 98/38/3 95/47/3
f 63/20/17 59/48/17 102/49/17 99/20/17
f 37/50/18 41/23/18 84/23/18 86/50/18
f 50/26/3 46/51/3 113/51/3 110/26/3
f 23/52/19 21/53/19 92/53/19 93/52/19
f 64/54/4 68/32/4 140/32/4 139/54/4
f 35/34/20 31/55/20 123/55/20 120/34/20
f 49/56/21 53/35/21 78/35/21 80/56/21
f 22/6/3 24/57/3 95/57/3 128/6/3
f 62/39/3 58/58/3 104/58/3 101/39/3
f 36/59/22 40/40/22 133/40/22 132/59/22
f 47/41/23 43/1/23 114/1/23 111/41/23
f 21/53/25 29/11/25 90/11/25 92/53/25
f 61/4/27 65/43/27 72/43/27 74/4/27
f 34/45/3 30/5/3 125/5/3 122/45/3
f 48/8/4 52/46/4 136/46/4 135/8/4
f 59/48/34 55/9/34 105/9/34 102/49/34
f 33/12/37 37/50/37 86/50/37 88/12/37
f 46/51/3 42/13/3 116/13/3 113/51/3
f 60/16/4 64/54/4 139/54/4 138/16/4
f 31/55/47 25/36/47 126/36/47 123/55/47
f 45/24/50 49/56/50 80/56/50 82/24/50
f 58/58/3 54/25/3 107/25/3 104/58/3
f 32/42/4 36/59/4 132/59/4 131/42/4
f 69/89/62 70/31/62 96/19/62 97/90/62
f 97/90/63 96/19/63 99/20/63 100/91/63
f 100/91/64 99/20/64 102/49/64 103/92/64
f 103/92/65 102/49/65 105/9/65 106/93/65
f 106/93/66 105/9/66 108/10/66 109/94/66
f 109/94/67 108/10/67 111/41/67 112/95/67
f 112/95/68 111/41/68 114/1/68 115/96/68
f 115/96/69 114/1/69 117/2/69 118/97/69
f 118/97/70 117/2/70 120/34/70 121/98/70
f 121/98/71 120/34/71 123/55/71 124/99/71
f 124/99/72 123/55/72 126/36/72 127/100/72
f 127/100/73 126/36/73 70/37/73 69/101/73
f 92/53/74 91/102/74 94/103/74 93/52/74
f 91/102/75 128/6/75 95/57/75 94/103/75
f 90/11/76 89/104/76 91/102/76 92/53/76
f 129/18/77 131/42/77 124/99/77 127/100/77
f 88/12/78 87/105/78 89/104/78 90/11/78
f 131/42/79 132/59/79 121/98/79 124/99/79
f 86/50/80 85/106/80 87/105/80 88/12/80
f 132/59/81 133/40/81 118/97/81 121/98/81
f 84/23/82 83/107/82 85/106/82 86/50/82
f 133/40/83 134/7/83 115/96/83 118/97/83
f 82/24/84 81/108/84 83/107/84 84/23/84
f 134/7/85 135/8/85 112/95/85 115/96/85
f 80/56/86 79/109/86 81/108/86 82/24/86
f 135/8/87 136/46/87 109/94/87 112/95/87
f 78/35/88 77/110/88 79/109/88 80/56/88
f 136/46/89 137/15/89 106/93/89 109/94/89
f 76/3/90 75/111/90 77/110/90 78/35/90
f 137/15/91 138/16/91 103/92/91 106/93/91
f 74/4/92 73/112/92 75/111/92 76/3/92
f 138/16/93 139/54/93 100/91/93 103/92/93
f 72/43/94 71/113/94 73/112/94 74/4/94
f 139/54/95 140/32/95 97/90/95 100/91/95
f 93/44/96 94/114/96 71/113/96 72/43/96
f 94/114/97 95/47/97 98/38/97 71/113/97
f 129/18/98 127/100/98 69/101/98 130/17/98
f 130/33/99 69/89/99 97/90/99 140/32/99
f 89/104/100 125/5/100 128/6/100 91/102/100
f 87/105/101 122/45/101 125/5/101 89/104/101
f 85/106/102 119/14/102 122/45/102 87/105/102
f 83/107/103 116/13/103 119/14/103 85/106/103
f 81/108/104 113/51/104 116/13/104 83/107/104
f 79/109/105 110/26/105 113/51/105 81/108/105
f 77/110/106 107/25/106 110/26/106 79/109/106
f 75/111/107 104/58/107 107/25/107 77/110/107
f 73/112/108 101/39/108 104/58/108 75/111/108
f 71/113/109 98/38/109 101/39/109 73/112/109
